<?xml version="1.0" standalone="no"?>
<!DOCTYPE svg PUBLIC "-//W3C//DTD SVG 1.1//EN" "http://www.w3.org/Graphics/SVG/1.1/DTD/svg11.dtd" >
<svg xmlns="http://www.w3.org/2000/svg">
<metadata></metadata>
<defs>
<font id="f37_bellastencil" horiz-adv-x="0" >
<font-face units-per-em="2048" ascent="1638" descent="-410" />
<missing-glyph horiz-adv-x="620" />
<glyph unicode="fi" horiz-adv-x="1395" d="M1140 1214q-74 0 -123 49t-49 123q0 73 49 124t123 51q73 0 123.5 -50.5t50.5 -124.5t-51 -123t-123 -49zM82 0v1160q0 102 64.5 185.5t167.5 128t218 44.5q30 0 78 -6q-105 -1 -155.5 -50.5t-50.5 -147.5v-1314h-322zM659 1116q-69 0 -119 50t-50 120t49.5 120t119.5 50 q71 0 120.5 -49.5t49.5 -120.5q0 -72 -50.5 -121t-119.5 -49zM978 0v1024h322v-1024h-322z" />
<glyph unicode="fl" horiz-adv-x="1433" d="M82 0v1160q0 102 64.5 185.5t167.5 128t218 44.5q30 0 78 -6q-105 -1 -155.5 -50.5t-50.5 -147.5v-1314h-322zM1024 0v1491h323l5 -1491h-328zM659 1116q-69 0 -119 50t-50 120t49.5 120t119.5 50q71 0 120.5 -49.5t49.5 -120.5q0 -72 -50.5 -121t-119.5 -49z" />
<glyph unicode="&#xd;" horiz-adv-x="307" />
<glyph unicode=" "  horiz-adv-x="620" />
<glyph unicode="&#x09;" horiz-adv-x="620" />
<glyph unicode="&#xa0;" horiz-adv-x="620" />
<glyph unicode="!" horiz-adv-x="509" d="M256 479q0 89 -25 199t-55 197t-55 192.5t-25 185.5q0 105 41.5 158t118.5 53q75 0 116.5 -53.5t41.5 -157.5q0 -88 -24.5 -195t-54.5 -192t-54.5 -192t-24.5 -195zM256 -18q-71 0 -122.5 51t-51.5 123q0 71 51 121.5t123 50.5q71 0 121.5 -50.5t50.5 -121.5 t-50.5 -122.5t-121.5 -51.5z" />
<glyph unicode="&#x22;" horiz-adv-x="806" d="M224 723q0 69 -22 155.5t-49 155.5t-49 149.5t-22 137.5q0 60 40 101.5t101 41.5q62 0 102 -42t40 -101q0 -57 -22 -138t-48.5 -151t-48.5 -156.5t-22 -152.5zM586 723q0 69 -22.5 155.5t-49 155.5t-49 149.5t-22.5 137.5q0 60 40.5 101.5t101.5 41.5q62 0 101.5 -42 t39.5 -101q0 -71 -35 -179t-70 -222t-35 -197z" />
<glyph unicode="#" horiz-adv-x="1271" d="M188 54l176 455h-249v9h252l136 352h-250v10h253l170 441h10l-170 -441h374l170 441h10l-170 -441h253v-10h-256l-136 -352h253v-9h-256l-175 -455h-11l176 455h-374l-175 -455h-11zM377 518h374l136 352h-374z" />
<glyph unicode="$" horiz-adv-x="1204" d="M519 -171v758l-33 13q-99 43 -163.5 79.5t-120 86.5t-81.5 113.5t-26 145.5q0 183 112 294.5t309 135.5q-83 -14 -139 -78.5t-56 -148.5q0 -74 38.5 -130.5t124.5 -104.5l35 -19v654h10v-658q60 -30 123 -57v715h11v-719q90 -37 153 -70t122 -76.5t94 -92.5t55.5 -114 t20.5 -145q0 -157 -115.5 -280t-285.5 -164q94 27 147.5 94t53.5 156q0 107 -62.5 177t-182.5 129v-694h-11v697q-7 3 -56 26t-67 32v-755h-10zM860 955q-71 0 -122.5 51t-51.5 123t51 124t123 52t123.5 -52t51.5 -124q0 -73 -52 -123.5t-123 -50.5zM267 123q-73 0 -124 51 t-51 124q0 72 51 123.5t124 51.5t123.5 -52t50.5 -123q0 -72 -51 -123.5t-123 -51.5z" />
<glyph unicode="%" horiz-adv-x="1783" d="M428 590q-91 0 -172 66t-127.5 166.5t-46.5 203.5q0 104 47 204.5t128 166t171 65.5q91 0 172 -66t127.5 -166.5t46.5 -203.5q0 -104 -47 -205t-128 -166t-171 -65zM428 600q26 0 46 8.5t35 27.5t25.5 39.5t17 54.5t10.5 62.5t6 73.5t2.5 77t0.5 83q0 58 -0.5 96t-3.5 87 t-9 80.5t-16.5 65.5t-25.5 53t-37 31.5t-51 12.5t-51.5 -12.5t-37.5 -32.5t-26 -54t-16.5 -66t-9 -80.5t-4 -86.5t-0.5 -94q0 -67 1.5 -111t5.5 -98.5t14 -89t25.5 -66t40.5 -46.5t58 -15zM556 0l657 1434h17l-660 -1434h-14zM1356 -29q-91 0 -172 66t-127.5 167t-46.5 204 q0 104 47 204.5t128 166t171 65.5q91 0 172 -66t127.5 -166.5t46.5 -203.5q0 -104 -47 -205t-128 -166.5t-171 -65.5zM1356 -18q26 0 46 8.5t35 27.5t25.5 39.5t17 54.5t10.5 62.5t6 73.5t2.5 77t0.5 83q0 58 -0.5 96t-3.5 87t-9 80.5t-16.5 65.5t-25.5 53t-37 31.5 t-51 12.5t-51.5 -12.5t-38 -32.5t-26 -54t-16.5 -66t-9 -80.5t-4 -86.5t-1 -94t1 -95.5t4 -87.5t9 -80.5t17 -65.5t26 -52.5t37.5 -32t51.5 -12.5z" />
<glyph unicode="&#x26;" horiz-adv-x="1878" d="M959 1027q31 27 44 79.5t13 148.5q0 87 -12 135t-54 66q217 -28 217 -198q0 -71 -57.5 -129.5t-150.5 -101.5zM1186 -291q-73 0 -155 28q-53 18 -127 56q76 -35 190 -35q145 0 145 158q0 40 -11 80t-37 86.5t-47 79.5t-61 90l-470 664q-47 68 -69 119.5t-22 111.5 q0 123 88 206t223 101q-38 -18 -60.5 -64t-22.5 -106q0 -84 43.5 -148.5t126.5 -122.5q72 -49 235.5 -135.5t265.5 -156.5q281 -196 281 -524q0 -225 -143.5 -356.5t-372.5 -131.5zM1596 686q-72 0 -123.5 51t-51.5 124t51 124.5t124 51.5t125 -51.5t52 -124.5 q0 -74 -52.5 -124.5t-124.5 -50.5zM584 -31q-205 0 -341.5 115t-136.5 301q0 91 34 168.5t98.5 139t142 109.5t180.5 93q-79 -51 -105 -123t-26 -194q0 -82 27.5 -171t73 -163t111 -122t134.5 -48q84 0 134.5 20t99.5 79q-146 -204 -426 -204z" />
<glyph unicode="'" horiz-adv-x="446" d="M224 723q0 69 -22 155.5t-49 155.5t-49 149.5t-22 137.5q0 60 40 101.5t101 41.5q62 0 102 -42t40 -101q0 -57 -22 -138t-48.5 -151t-48.5 -156.5t-22 -152.5z" />
<glyph unicode="(" horiz-adv-x="739" d="M862 -297q-130 0 -249.5 57.5t-210 156.5t-158.5 226t-103 272t-35 290q0 123 25.5 246t72.5 233.5t115.5 206.5t150.5 165.5t183.5 109.5t208.5 40v-10q-93 0 -163 -29t-114.5 -80t-72 -129t-38.5 -167.5t-11 -205.5v-761q0 -116 11 -206t39 -168t73 -129t114.5 -79.5 t161.5 -28.5v-10z" />
<glyph unicode=")" horiz-adv-x="739" d="M-123 -297v10q93 0 162.5 29t114.5 80t72.5 129.5t38.5 168t11 204.5v761q0 116 -11 206t-39 168t-72.5 129t-114 79.5t-162.5 28.5v10q109 0 211 -40.5t184 -111t150.5 -167t114.5 -207.5t71 -232.5t25 -242.5q0 -185 -57 -365.5t-155 -321.5t-241 -228t-303 -87z" />
<glyph unicode="*" horiz-adv-x="819" d="M408 668q-27 0 -48 21.5t-21 60.5q0 32 31 131.5t31 172.5q-19 -11 -37 -24t-29.5 -22.5t-28.5 -26.5t-23 -23.5t-23 -25.5t-20 -22q-35 -39 -60.5 -57t-57.5 -18q-30 0 -48.5 18.5t-18.5 45.5q0 39 25.5 57.5t81.5 31.5q151 29 234 76q-65 39 -166 63q-110 24 -136 38 q-39 21 -39 67q0 27 19 46t49 19q31 0 56.5 -18.5t61.5 -59.5q2 -2 17 -19t20 -22.5t19 -20t23 -22.5t23 -20t28 -22t30 -19q0 62 -31 169.5t-31 138.5q0 39 21 60.5t48 21.5q28 0 49 -21.5t21 -60.5q0 -33 -16 -80.5t-32.5 -106.5t-16.5 -121q16 9 30 18t28.5 21.5t23 20 t23.5 23t19 20l20 22.5t17 19q25 28 39 41.5t35.5 25.5t44.5 12q30 0 49.5 -19t19.5 -45q0 -39 -26 -57t-81 -31q-4 -1 -39 -9.5t-49 -12.5t-43.5 -13t-54 -20t-49.5 -25q81 -47 233 -76q56 -11 82 -31t26 -59q0 -28 -18.5 -46.5t-47.5 -18.5q-33 0 -58.5 18.5t-61.5 59.5 q-1 2 -11.5 13.5t-13.5 14.5t-13 14t-14.5 15t-15 14t-17 15.5t-17 14.5t-19 15t-19.5 13.5t-22 13.5q0 -63 32.5 -167t32.5 -138q0 -39 -21 -60.5t-49 -21.5z" />
<glyph unicode="+" horiz-adv-x="1050" d="M519 188v405h-402v10h402v403h11v-403h403v-10h-403v-405h-11z" />
<glyph unicode="," horiz-adv-x="512" d="M182 -141l-2 10q205 32 236 213q-20 -44 -64 -72t-96 -28q-71 0 -122.5 51t-51.5 123q0 71 51 122.5t123 51.5q80 0 127 -54.5t47 -134.5q0 -245 -248 -282z" />
<glyph unicode="-" horiz-adv-x="765" d="M117 593v10h530v-10h-530z" />
<glyph unicode="." horiz-adv-x="458" d="M229 -18q-71 0 -122.5 51t-51.5 123q0 71 51 121.5t123 50.5q71 0 121.5 -50.5t50.5 -121.5t-50.5 -122.5t-121.5 -51.5z" />
<glyph unicode="/" horiz-adv-x="817" d="M78 -254l649 1688h13l-649 -1688h-13z" />
<glyph unicode="0" horiz-adv-x="1290" d="M578 -24q-153 25 -284.5 138.5t-206.5 275t-75 327.5q0 168 75.5 329t207.5 273.5t285 137.5q-36 -8 -65.5 -29.5t-50.5 -57t-36.5 -75.5t-25.5 -96.5t-16.5 -107.5t-9.5 -120.5t-4 -124t-1 -129.5q0 -85 1.5 -147.5t6 -140.5t13 -134.5t24 -115t37 -97.5t53.5 -68 t72 -38zM714 -23q47 11 82.5 45.5t57.5 93t36 120t20 151t8 159.5t2 171q0 86 -1 148t-6 140t-13.5 134t-24 115t-37 97.5t-54 67.5t-73.5 38q116 -19 222 -90.5t181 -172t119.5 -226.5t44.5 -251q0 -167 -75 -328.5t-206 -274t-283 -137.5z" />
<glyph unicode="1" horiz-adv-x="1290" d="M578 0v1171h-201q160 25 306.5 103t229.5 190v-1464h-335z" />
<glyph unicode="2" horiz-adv-x="1290" d="M289 446q70 64 153 119q130 88 197.5 156.5t102 160t34.5 222.5q0 175 -57.5 260.5t-178.5 85.5l-56 -3q72 14 145 14q124 0 237 -53t183.5 -146.5t70.5 -203.5q0 -57 -11.5 -105.5t-30.5 -87t-52.5 -73t-69 -60.5t-90 -53.5t-104.5 -49t-123 -48.5q-46 -17 -131.5 -42 t-141.5 -49q-38 -16 -77 -44zM333 934q-69 0 -119 50t-50 120t49.5 120t119.5 50q71 0 120.5 -49.5t49.5 -120.5q0 -72 -50.5 -121t-119.5 -49zM820 -30q-75 0 -136.5 21t-103 51t-80 60t-85.5 51t-101 21q-63 0 -107.5 -33t-61.5 -90q0 131 93.5 227.5t227.5 96.5 q58 0 111.5 -16.5t95 -39.5t81.5 -46t87 -39.5t96 -16.5q168 0 207 128q-15 -161 -101.5 -268t-222.5 -107z" />
<glyph unicode="3" horiz-adv-x="1290" d="M621 -29q98 19 141.5 121.5t43.5 309.5q0 170 -43 258.5t-138 107.5q49 5 84.5 25.5t57 50t33.5 76.5t16 96t4 118q0 161 -51.5 243t-180.5 82q245 13 379.5 -82.5t134.5 -266.5q0 -128 -99.5 -226t-236.5 -110v-11q168 -14 275.5 -113t107.5 -256q0 -98 -42.5 -178 t-115.5 -132t-167.5 -81t-202.5 -32zM386 935q-68 0 -118.5 50.5t-50.5 118.5q0 69 50 120t119 51q72 0 121 -50.5t49 -120.5q0 -71 -50.5 -120t-119.5 -49zM310 98q-69 0 -119 50t-50 120t49.5 120t119.5 50q71 0 120.5 -49.5t49.5 -120.5q0 -72 -50.5 -121t-119.5 -49z " />
<glyph unicode="4" horiz-adv-x="1290" d="M678 0v348h-582l117 148h465v585l336 424v-1009q68 0 105.5 10.5t74.5 44.5l-64 -203h-116v-348h-336z" />
<glyph unicode="5" horiz-adv-x="1290" d="M260 873q32 288 32 546l10 4q10 4 14.5 5.5t17 6t22 6.5t25 6t31 6t35 4t42 3t47.5 1q88 0 211 -43.5t212 -43.5q110 0 145 51q-23 -159 -107 -246.5t-226 -87.5q-55 0 -140 21t-136 21q-97 0 -151 -67.5t-84 -192.5zM593 -30q62 8 107 36t71.5 68.5t42 103t20.5 125.5 t5 149q0 194 -78.5 311.5t-233.5 117.5q-44 0 -86 -11q87 30 184 30q230 0 380 -128t150 -337q0 -144 -77.5 -251.5t-203.5 -160.5t-281 -53zM304 97q-69 0 -119 50.5t-50 120.5t49.5 119.5t119.5 49.5q71 0 120.5 -49t49.5 -120q0 -73 -50 -122t-120 -49z" />
<glyph unicode="6" horiz-adv-x="1290" d="M620 -28q-164 21 -289 129t-189.5 268t-64.5 344q0 175 69.5 333t199 268t292.5 136q-34 -13 -62 -37t-48 -61t-35 -75.5t-25 -95t-16.5 -104t-10.5 -117.5t-5.5 -120t-3.5 -127q1 -77 2.5 -126.5t4.5 -120.5t9 -118t15 -105t23 -96.5t32.5 -76.5t44 -62t57.5 -36z M946 979q-69 0 -119.5 50t-50.5 119q0 70 49.5 120t120.5 50q72 0 120.5 -50t48.5 -120q0 -69 -49.5 -119t-119.5 -50zM751 -30q152 63 152 440q0 92 -12.5 169t-39 141t-74.5 100.5t-113 36.5q-50 0 -90 -17q76 47 184 47q184 0 319 -135.5t135 -321.5q0 -183 -134 -311 t-327 -149z" />
<glyph unicode="7" horiz-adv-x="1290" d="M162 931v451l6 3q144 78 265 78q67 0 142.5 -23.5t131.5 -52.5t126 -52.5t126 -23.5q63 0 107.5 27t60.5 76q1 -10 1 -18q0 -83 -66 -164.5t-165 -131.5t-192 -50q-55 0 -144 13t-149 13q-217 0 -250 -145zM653 -28q-102 0 -164 81t-62 194q0 75 18.5 138.5t53 114t77 95 t97.5 91.5t108 92.5t114.5 108t110.5 128.5q-73 -132 -110 -228.5t-37 -184.5q0 -84 14 -173.5t14 -160.5q0 -127 -62 -211.5t-172 -84.5z" />
<glyph unicode="8" horiz-adv-x="1290" d="M805 0q68 33 106.5 90.5t38.5 130.5q0 102 -92 187q-61 56 -246.5 158.5t-213.5 120.5q-119 79 -173 164t-54 190q0 156 104.5 270t268.5 145q-130 -48 -130 -209q0 -96 59.5 -163t172.5 -127q51 -28 203 -102q160 -80 239 -175.5t79 -237.5q0 -150 -104 -272t-258 -170z M868 870q78 90 78 262q0 115 -45.5 202t-135.5 122q135 -27 225 -111.5t90 -202.5q0 -87 -61.5 -162t-150.5 -110zM552 -17q-108 15 -206 66t-161 132t-63 170q0 113 72 197.5t186 122.5q-49 -49 -63 -113.5t-14 -174.5q0 -138 67 -251t182 -149z" />
<glyph unicode="9" horiz-adv-x="1290" d="M521 547q-118 0 -218.5 62t-158 167t-57.5 228q0 185 126 311t316 147q-41 -17 -69 -61t-41 -108.5t-18 -127t-5 -141.5q0 -228 53 -338.5t166 -110.5q46 0 91 19q-73 -47 -185 -47zM641 -17q37 14 67 40t51 68t36.5 84t25 107.5t15 116t8 132.5t3 134.5t0.5 142.5 q-2 88 -4 146.5t-8.5 136t-19 130t-32 105t-50 86t-70.5 49.5q163 -22 287.5 -130.5t188 -267.5t63.5 -343q0 -175 -69 -333t-199 -268t-293 -136zM312 102q-70 0 -120 50t-50 120q0 69 49.5 119t120.5 50t120.5 -49t49.5 -120q0 -72 -50.5 -121t-119.5 -49z" />
<glyph unicode=":" horiz-adv-x="509" d="M256 696q-71 0 -122.5 51t-51.5 123q0 71 51 121.5t123 50.5q71 0 121.5 -50.5t50.5 -121.5t-50.5 -122.5t-121.5 -51.5zM256 -18q-71 0 -122.5 51t-51.5 123q0 71 51 121.5t123 50.5q71 0 121.5 -50.5t50.5 -121.5t-50.5 -122.5t-121.5 -51.5z" />
<glyph unicode=";" horiz-adv-x="512" d="M256 696q-71 0 -122.5 51t-51.5 123q0 71 51 121.5t123 50.5q71 0 121.5 -50.5t50.5 -121.5t-50.5 -122.5t-121.5 -51.5zM182 -141l-2 10q205 32 236 213q-20 -44 -64 -72t-96 -28q-71 0 -122.5 51t-51.5 123q0 71 51 122.5t123 51.5q80 0 127 -54.5t47 -134.5 q0 -245 -248 -282z" />
<glyph unicode="&#x3c;" horiz-adv-x="909" d="M791 289l-674 304v10l674 304v-10l-664 -299l664 -299v-10z" />
<glyph unicode="=" horiz-adv-x="1007" d="M117 757v10h772v-10h-772zM117 429v10h772v-10h-772z" />
<glyph unicode="&#x3e;" horiz-adv-x="909" d="M117 289v10l663 299l-663 299v10l674 -304v-10z" />
<glyph unicode="?" horiz-adv-x="1132" d="M486 1464q157 0 281.5 -37.5t204 -122t79.5 -206.5q0 -118 -75 -191t-220 -129q-154 -62 -200 -89q-95 -60 -96 -142v-27v-5q-21 63 -21 112q0 60 28.5 114.5t69 100.5t81 95t69 118t28.5 149q0 121 -59.5 189t-169.5 71zM399 1161q0 -71 -50.5 -122t-123.5 -51t-123 50 t-50 123q0 74 51.5 124t121.5 50q71 0 122.5 -51t51.5 -123zM460 515q1 -1 1 -2q0 1 -0.5 1t-0.5 1zM522 328q71 0 121.5 -50.5t50.5 -121.5t-50.5 -122.5t-121.5 -51.5t-122.5 51t-51.5 123q0 71 51 121.5t123 50.5z" />
<glyph unicode="@" horiz-adv-x="2043" d="M1063 -340q-188 0 -360 74t-297 199t-199 297t-74 360t74 360t199 296.5t297 198t360 73.5q250 0 441.5 -96.5t299 -279.5t107.5 -427q0 -155 -76 -292t-207 -219.5t-282 -82.5q-136 0 -223 61t-87 178q0 46 21 111l182 553h270l-180 -553q-45 -138 -45 -205 q0 -53 29 -77.5t96 -24.5q121 0 235 76.5t185.5 205t71.5 269.5q0 182 -61.5 331.5t-171.5 250.5t-265 155.5t-340 54.5q-187 0 -357 -72.5t-293.5 -195t-196.5 -292.5t-73 -357t73 -357t196.5 -293.5t293.5 -196.5t357 -73q332 0 589 215l7 -8q-125 -104 -277 -160.5 t-319 -56.5zM745 139q-97 0 -153.5 79t-56.5 194q0 78 27.5 165.5t77 167t111.5 144.5t137 104t148 39q50 0 75 -14q-2 1 -7 1h-8q-58 0 -104 -78q-51 -85 -141.5 -354t-90.5 -347q0 -42 12 -62.5t41 -20.5h22v-2q-43 -16 -90 -16z" />
<glyph unicode="A" horiz-adv-x="1206" d="M786 0l-390 972l178 496l595 -1468h-383z" />
<glyph unicode="B" horiz-adv-x="1251" d="M631 0q209 48 209 362q0 195 -58 292.5t-208 111.5q193 32 193 333q0 135 -51 223.5t-157 113.5q504 -22 504 -337q0 -132 -93 -218t-239 -110l-32 -5q9 0 42 -4q121 -13 216 -59.5t153.5 -131t58.5 -194.5q0 -99 -40 -172.5t-113.5 -117.5t-169.5 -65t-215 -22zM82 0 v1434h344v-1434h-344z" />
<glyph unicode="C" horiz-adv-x="1274" d="M658 -30q-169 21 -301.5 130t-203.5 272t-71 349q0 179 74.5 341.5t211.5 272t306 130.5q-50 -17 -88 -53t-63 -91.5t-41.5 -117.5t-25 -144.5t-11.5 -158t-3 -172.5v-9q0 -88 3 -162.5t11 -157t24 -149t39 -125t58.5 -98.5t80.5 -57zM1022 974q-69 0 -119.5 50 t-50.5 120q0 71 49.5 121t120.5 50q72 0 121.5 -49t49.5 -122q0 -71 -50 -120.5t-121 -49.5z" />
<glyph unicode="D" horiz-adv-x="1397" d="M82 0v1434h344v-1434h-344zM729 22q56 21 98 57t70 88t46 109t27 133.5t12.5 146t3.5 161.5q0 113 -4.5 194.5t-20.5 169.5t-43 148t-74.5 109.5t-114.5 74.5q262 -60 424.5 -249t162.5 -447t-163.5 -446.5t-423.5 -248.5z" />
<glyph unicode="E" horiz-adv-x="1133" d="M82 0v1434h344v-1434h-344zM978 959q-42 187 -143 316.5t-254 158.5h397v-475zM743 439q-58 262 -246 296q96 16 159 98t87 198v-592zM596 0q184 29 301 166.5t155 340.5v-507h-456z" />
<glyph unicode="F" horiz-adv-x="1059" d="M82 0v1434h344v-1434h-344zM978 959q-42 187 -143 316.5t-254 158.5h397v-475zM743 439q-58 262 -246 296q96 16 159 98t87 198v-592z" />
<glyph unicode="G" horiz-adv-x="1406" d="M658 -25q-171 22 -303.5 128.5t-202.5 267t-70 347.5q0 296 173 501.5t461 238.5q-153 -43 -214.5 -212t-61.5 -530q0 -92 3 -165.5t10.5 -156.5t23 -147t39 -121.5t59.5 -95.5t83 -55zM1154 971q-68 0 -118.5 50.5t-50.5 118.5q0 70 49.5 120t119.5 50q71 0 120 -49.5 t49 -120.5t-50 -120t-119 -49zM848 -22q70 27 101.5 97.5t31.5 189.5v365h344v-624q-18 47 -59.5 75.5t-93.5 28.5q-45 0 -87.5 -16.5t-71.5 -38t-74 -44.5t-91 -33z" />
<glyph unicode="H" horiz-adv-x="1302" d="M82 0v1434h344v-1434h-344zM877 0v1434h344v-1434h-344z" />
<glyph unicode="I" horiz-adv-x="507" d="M82 0v1434h344v-1434h-344z" />
<glyph unicode="J" horiz-adv-x="957" d="M389 -31q70 9 106.5 66.5t36.5 157.5v1241h344v-1028q0 -202 -132.5 -319.5t-347.5 -117.5h-7zM251 27q-69 0 -119 50t-50 120t49.5 120t119.5 50q72 0 121 -50t49 -120q0 -72 -50.5 -121t-119.5 -49z" />
<glyph unicode="K" horiz-adv-x="1360" d="M82 1434h344v-1434h-344v1434zM656 978l623 -978h-420l-433 682z" />
<glyph unicode="L" horiz-adv-x="1133" d="M82 0v1434h344v-1434h-344zM596 0q183 29 300.5 166.5t155.5 340.5v-507h-456z" />
<glyph unicode="M" horiz-adv-x="1445" d="M600 -20l-518 1346v108h338l348 -900zM1020 0v1434h344v-1434h-344z" />
<glyph unicode="N" horiz-adv-x="1101" d="M1020 -20l-938 1347v107h356l582 -834v-620z" />
<glyph unicode="O" horiz-adv-x="1572" d="M656 -20q-159 37 -291 146t-207.5 264t-75.5 321q0 254 165 463.5t409 269.5q-46 -20 -81 -59t-57 -96.5t-36 -118.5t-21 -144t-9 -152t-2 -163t2.5 -164t9 -152.5t21 -143t36.5 -117.5t56.5 -95.5t80.5 -58.5zM919 -20q46 20 81 59t57 96.5t36.5 118t21 143t9 152 t2.5 162.5q0 94 -2.5 164.5t-9 153t-21 143.5t-36.5 118t-57 95.5t-81 58.5q245 -61 408.5 -270t163.5 -463q0 -255 -164 -463t-408 -268z" />
<glyph unicode="P" horiz-adv-x="1211" d="M82 0v1434h344v-1434h-344zM644 514l-45 2q57 0 100 25.5t68.5 65.5t41 100.5t20.5 120t5 133.5q0 213 -63 328.5t-196 143.5q255 -12 404.5 -132t149.5 -340q0 -218 -129.5 -332.5t-355.5 -114.5z" />
<glyph unicode="Q" horiz-adv-x="1572" d="M653 -23q-243 59 -407 268.5t-164 462.5q0 255 164 463.5t408 268.5q-46 -20 -81 -59t-57 -96t-36.5 -118.5t-21.5 -143.5t-9.5 -152t-2.5 -163t2.5 -164t9.5 -153t21.5 -143.5t36.5 -118t56.5 -95t80.5 -57.5zM919 -24q40 17 71 50t52.5 73.5t37 97.5t24 111.5 t13.5 127.5t6.5 133t1.5 139q0 95 -2.5 164.5t-9 152.5t-20.5 143.5t-36 117.5t-57 95.5t-81 58.5q246 -61 409 -269t163 -463t-164 -463.5t-408 -268.5zM701 -416q-145 0 -263 84t-154 218q33 -83 118 -135t182 -52q69 0 143 34t138.5 82.5t128 97t133 82.5t131.5 34 q98 0 161.5 -66t63.5 -166q0 -86 -69 -134q25 30 25 67q0 46 -31 75t-80 29q-67 0 -132.5 -26t-120 -62.5t-109.5 -73t-124 -62.5t-141 -26z" />
<glyph unicode="R" horiz-adv-x="1367" d="M1210 -30q-186 0 -285.5 92t-99.5 272v134q0 249 -235 282q47 6 80 24.5t52.5 45t31 69t15 87t3.5 107.5q0 161 -44 245.5t-142 106.5q136 -5 246 -44.5t180 -119.5t70 -188q0 -137 -110.5 -232.5t-264.5 -100.5h-1q132 -9 235 -55.5t165 -135t62 -206.5v-185 q0 -101 26.5 -146.5t85.5 -45.5q-28 -6 -70 -6zM82 0v1434h344v-1434h-344z" />
<glyph unicode="S" horiz-adv-x="1165" d="M760 10q125 69 125 224q0 48 -12 88.5t-38.5 74.5t-55.5 59.5t-79 52.5t-90.5 45.5t-106.5 46.5q-105 44 -176 84.5t-129 94.5t-86 122.5t-28 155.5q0 150 100 262t265 138q-70 -25 -109 -87t-39 -137q0 -50 25 -94.5t74.5 -82.5t106.5 -69t137 -65q109 -47 187 -95 t136.5 -108.5t87 -135.5t28.5 -167q0 -124 -92.5 -239t-230.5 -168zM833 972q-68 0 -118.5 50.5t-50.5 118.5q0 70 49.5 120t119.5 50q73 0 122 -50t49 -120t-50 -119.5t-121 -49.5zM251 145q-69 0 -119 50t-50 120t49.5 119.5t119.5 49.5q71 0 120.5 -49t49.5 -120 q0 -72 -50.5 -121t-119.5 -49z" />
<glyph unicode="T" horiz-adv-x="1291" d="M82 973v461h339q-96 -22 -169.5 -92t-114 -163.5t-55.5 -205.5zM472 0v1434h344v-1434h-344zM1205 972q-15 114 -57 208.5t-114.5 163t-166.5 90.5h338v-462z" />
<glyph unicode="U" horiz-adv-x="1296" d="M639 -32q-264 0 -410.5 119t-146.5 360v986h343v-1051q0 -205 61 -299.5t224 -94.5q93 0 157 32q-88 -52 -228 -52z" />
<glyph unicode="V" horiz-adv-x="1217" d="M651 -35l-569 1469h379l365 -927z" />
<glyph unicode="W" horiz-adv-x="1849" d="M631 -35l-549 1469h377l340 -904zM1309 -35l-549 1469h377l339 -905z" />
<glyph unicode="X" horiz-adv-x="1333" d="M850 0l-768 1434h401l768 -1434h-401z" />
<glyph unicode="Y" horiz-adv-x="1200" d="M469 0v627l-387 807h377l354 -745v-689h-344z" />
<glyph unicode="Z" horiz-adv-x="1287" d="M82 0l709 1434h376l-708 -1434h-377zM120 946v488h449q-191 -29 -305 -156.5t-144 -331.5zM706 1q213 30 339.5 161.5t159.5 357.5v-519h-499z" />
<glyph unicode="[" horiz-adv-x="776" d="M209 -268v1945h500v-10h-164v-1925h164v-10h-500z" />
<glyph unicode="\" horiz-adv-x="817" d="M727 -254l-649 1688h13l649 -1688h-13z" />
<glyph unicode="]" horiz-adv-x="776" d="M67 -268v10h163v1925h-163v10h499v-1945h-499z" />
<glyph unicode="^" horiz-adv-x="942" d="M82 1080l384 446h10l384 -446h-10l-379 439l-379 -439h-10z" />
<glyph unicode="_" horiz-adv-x="839" d="M25 -84v10h788v-10h-788z" />
<glyph unicode="`" horiz-adv-x="555" d="M470 1193l-385 278l8 13l385 -279z" />
<glyph unicode="a" horiz-adv-x="1168" d="M953 -25q-156 0 -233.5 68t-77.5 194v632q0 84 -33.5 128t-106.5 52q135 -3 237.5 -42.5t163.5 -120.5t61 -196v-545q0 -128 85 -128q23 0 37 8q-47 -50 -133 -50zM301 601q-69 0 -119 50t-50 120t49.5 120t119.5 50q71 0 120.5 -49.5t49.5 -120.5q0 -72 -50.5 -121 t-119.5 -49zM354 -25q-121 0 -196.5 69.5t-75.5 186.5q0 138 102 217t265 86q34 1 70 11q1 1 3 1q-119 -59 -119 -198v-184q0 -85 13.5 -124t59.5 -39q9 0 23 2q-65 -28 -145 -28z" />
<glyph unicode="b" horiz-adv-x="1128" d="M404 210q0 -158 63 -210q-32 12 -79.5 37.5t-86.5 40t-83 14.5q-104 0 -136 -98v1496h322v-1280zM654 1047q112 0 204 -80.5t140.5 -203t48.5 -254.5q0 -148 -52 -269t-155.5 -194.5t-239.5 -73.5h-10q-7 0 -10 1q32 7 55.5 36t36 68t20 97t9.5 107.5t2 114.5v227 q0 66 -1 105.5t-4.5 93.5t-12.5 85t-23 61.5t-37 44.5t-54 14q-15 0 -18 -1q50 21 101 21z" />
<glyph unicode="c" horiz-adv-x="1011" d="M606 -26q-111 0 -209.5 43.5t-167 116.5t-108 171t-39.5 206q0 149 69 272.5t189 194.5t264 71q-31 -6 -56 -21t-43 -41t-31 -54t-21.5 -69.5t-13.5 -77.5t-7.5 -89t-3 -92t-0.5 -98q0 -508 178 -533zM759 600q-69 0 -119 50t-50 120t49.5 119.5t119.5 49.5 q73 0 122 -49.5t49 -119.5q0 -72 -50.5 -121t-120.5 -49z" />
<glyph unicode="d" horiz-adv-x="1134" d="M729 0v1490h324v-1490h-324zM539 -28q-111 0 -199 42t-144 115.5t-85 170.5t-29 209q0 133 49 255.5t140.5 202.5t202.5 80q51 0 101 -21q-4 1 -18 1q-24 0 -43 -8t-32.5 -26t-23 -37.5t-15.5 -52t-10 -59t-5.5 -70t-2 -73t-0.5 -78.5v-227q0 -66 2 -116.5t9.5 -108 t20.5 -96t36.5 -67t55.5 -35.5q-3 -1 -10 -1z" />
<glyph unicode="e" horiz-adv-x="1124" d="M700 524v61q0 108 -1 163t-7 131t-21 116t-41 55q179 -26 294.5 -178t117.5 -348h-342zM573 -20q-131 0 -245 75t-180 199t-66 262q0 128 57.5 244.5t157.5 194t219 94.5q-17 -8 -30 -20.5t-22 -33.5t-15.5 -39.5t-10.5 -51t-6.5 -53.5t-3.5 -62.5t-1 -62.5v-68v-197 q0 -73 1 -117.5t6 -99.5t14 -87t25.5 -66t40.5 -51.5t58.5 -29t80.5 -11.5q68 0 129 23q-90 -42 -209 -42z" />
<glyph unicode="f" horiz-adv-x="911" d="M82 0v1160q0 102 64.5 185.5t167.5 128t218 44.5q30 0 78 -6q-105 -1 -155.5 -50.5t-50.5 -147.5v-1314h-322zM659 1116q-69 0 -119 50t-50 120t49.5 120t119.5 50q71 0 120.5 -49.5t49.5 -120.5q0 -72 -50.5 -121t-119.5 -49z" />
<glyph unicode="g" horiz-adv-x="1200" d="M949 1000q-69 0 -119.5 50t-50.5 119q0 70 49.5 120t120.5 50t120 -49.5t49 -120.5t-50 -120t-119 -49zM530 396q-147 15 -245 104t-98 221q0 130 98.5 219t244.5 106q-95 -42 -95 -325q0 -282 95 -325zM643 396q94 45 94 325t-94 325q146 -15 244 -105.5t98 -219.5 q0 -131 -98 -219.5t-244 -105.5zM801 -473q71 31 111 82.5t40 116.5q0 44 -15 78.5t-43.5 57.5t-69 40.5t-91 29t-110 21.5t-126.5 19h-3q-90 13 -153 30.5t-115 48t-78 78.5t-26 115q0 125 122 191q-21 -23 -21 -52q0 -55 105 -76q63 -13 262 -25q122 -8 212.5 -31.5 t159.5 -68.5t104 -117.5t35 -173.5q0 -128 -83 -224t-217 -140zM482 -500q-106 10 -194.5 43t-147 94t-58.5 138q0 92 63 149t178 71l7 1q-47 -30 -73 -87t-26 -124q0 -98 72.5 -177.5t178.5 -107.5z" />
<glyph unicode="h" horiz-adv-x="1064" d="M82 0v1492h322v-1492h-322zM660 0v812q0 37 -1 60t-3.5 51t-8.5 44.5t-15.5 31.5t-24.5 22t-36 7q-4 0 -18 -2q42 21 100 21q158 0 244 -101t86 -273v-673h-323z" />
<glyph unicode="i" horiz-adv-x="509" d="M254 1214q-74 0 -123 49t-49 123q0 73 49 124t123 51q73 0 123.5 -50.5t50.5 -124.5t-51 -123t-123 -49zM92 0v1024h323v-1024h-323z" />
<glyph unicode="j" horiz-adv-x="927" d="M672 1214q-74 0 -123 49t-49 123q0 73 49 124t123 51q73 0 123.5 -50.5t50.5 -124.5t-51 -123t-123 -49zM380 -503q-47 0 -79 4q109 6 158.5 53.5t49.5 146.5v1323h322v-1169q0 -102 -65 -185.5t-168 -128t-218 -44.5zM251 -441q-69 0 -119 50t-50 120t49.5 120t119.5 50 q73 0 122 -50t49 -120q0 -72 -50.5 -121t-120.5 -49z" />
<glyph unicode="k" horiz-adv-x="1204" d="M82 0v1491h322v-1042l217 268l501 -717h-411l-307 442v-442h-322z" />
<glyph unicode="l" horiz-adv-x="491" d="M82 0v1491h322l6 -1491h-328z" />
<glyph unicode="m" horiz-adv-x="1634" d="M655 0v812q0 47 -1 74t-6 58t-15 47t-27.5 26.5t-43.5 10.5q-12 0 -22 -3q50 22 105 22q158 0 245.5 -101.5t87.5 -272.5v-673h-323zM1230 0v812q0 47 -1 74t-6 58t-15 47t-27.5 26.5t-43.5 10.5q-13 0 -23 -3q50 22 106 22q158 0 245 -101.5t87 -272.5v-673h-322zM82 0 v1024h324v-1024h-324z" />
<glyph unicode="n" horiz-adv-x="1059" d="M655 0v812q0 47 -1 74t-6 58t-15 47t-27.5 26.5t-43.5 10.5q-12 0 -22 -3q50 22 105 22q158 0 245.5 -101.5t87.5 -272.5v-673h-323zM82 0v1024h324v-1024h-324z" />
<glyph unicode="o" horiz-adv-x="1187" d="M539 -24q-124 17 -229.5 95.5t-166.5 195.5t-61 243t61 243t166.5 195t229.5 95q-20 -10 -36.5 -26t-28 -43t-19.5 -50t-13 -65.5t-8 -68.5t-4.5 -79.5t-1.5 -79.5v-87v-34q0 -249 12 -338q23 -159 99 -196zM649 -24q21 10 37.5 27t28 44t20 52t13.5 67t8 71t4.5 82 t1.5 81.5v86.5v23q0 244 -12 330q-22 166 -101 203q125 -17 231 -96t166 -195.5t60 -241.5q0 -193 -135.5 -351t-321.5 -183z" />
<glyph unicode="p" horiz-adv-x="1128" d="M654 -24q-54 0 -101 22q14 -2 18 -2q31 0 54 14.5t37.5 45t23.5 63t13 84.5t5 93t1 104v228q0 64 -1 105t-5 93.5t-13 84.5t-23.5 62.5t-37.5 44.5t-54 14q-4 0 -18 -2q50 21 101 21q111 0 203 -80t141 -202.5t49 -254.5q0 -133 -49.5 -256t-141 -202.5t-202.5 -79.5z M82 -475v1499h322v-1499h-322z" />
<glyph unicode="q" horiz-adv-x="1128" d="M474 -24q-110 0 -202 80.5t-141 203.5t-49 254q0 98 29.5 194.5t80 172.5t125 123t157.5 47q51 0 101 -21q-14 2 -18 2q-24 0 -43 -8t-32.5 -26t-23.5 -37t-16 -51.5t-10 -59t-5.5 -70t-2 -73t-0.5 -79.5v-228q0 -49 0.5 -80.5t2.5 -73.5t5.5 -69.5t10 -59t16.5 -51 t23.5 -37t32 -25.5t42.5 -8q4 0 18 2q-47 -22 -101 -22zM724 -475v1499h323v-1499h-323z" />
<glyph unicode="r" horiz-adv-x="913" d="M82 0v1024h324v-1024h-324zM657 635q-71 0 -122.5 51t-51.5 123q0 71 51 122.5t123 51.5q71 0 122.5 -51t51.5 -123q0 -71 -51 -122.5t-123 -51.5z" />
<glyph unicode="s" horiz-adv-x="886" d="M558 -20q75 36 75 142q0 67 -44 114t-130 92q-136 69 -202 111q-175 110 -175 298q0 103 65 188.5t164 113.5q-40 -21 -62 -58.5t-22 -83.5q0 -58 48.5 -102.5t135.5 -85.5q141 -68 212 -111q182 -114 182 -302q0 -119 -67.5 -205t-179.5 -111zM718 693q-21 99 -75.5 190 t-127.5 138q110 -47 158 -47q31 0 45 32v-313zM92 -22v424q23 -123 72 -200.5t157 -185.5q-88 40 -134 40q-29 0 -55 -20t-40 -58z" />
<glyph unicode="t" horiz-adv-x="618" d="M375 -27q-140 0 -216.5 83t-76.5 238v734q127 26 215.5 118t111.5 220v-1232q0 -52 20 -79.5t57 -27.5q31 0 51 20q-45 -74 -162 -74z" />
<glyph unicode="u" horiz-adv-x="1059" d="M415 -23q-158 0 -245.5 101.5t-87.5 272.5v673h322v-812q0 -58 2.5 -90.5t11.5 -65t28.5 -46.5t51.5 -14q11 0 22 3q-50 -22 -105 -22zM654 0v1024h324v-1024h-324z" />
<glyph unicode="v" horiz-adv-x="964" d="M522 -35l-440 1059h360l238 -552z" />
<glyph unicode="w" horiz-adv-x="1510" d="M522 -35l-440 1059h359l238 -552zM1069 -35l-440 1059h360l238 -550z" />
<glyph unicode="x" horiz-adv-x="1156" d="M686 0l-604 1024h389l605 -1024h-390z" />
<glyph unicode="y" horiz-adv-x="1119" d="M664 -43l-459 1067h362l259 -609zM258 -446q-72 0 -124 52t-52 124t51.5 124t124.5 52t124.5 -51.5t51.5 -124.5t-52 -124.5t-124 -51.5z" />
<glyph unicode="z" horiz-adv-x="1051" d="M82 0l531 1024h357l-533 -1023l-1 -1h-354zM144 664v360h350q-140 -27 -233.5 -123t-116.5 -237zM563 0q156 29 251.5 143t120.5 288v-431h-372z" />
<glyph unicode="{" horiz-adv-x="735" d="M635 -297q-108 0 -202 44t-151 124t-57 176v484q0 179 -125 179h-69v10h69q125 0 125 178v464q0 147 122 245.5t288 98.5h70v-10h-66q-51 0 -74.5 -30.5t-23.5 -104.5v-453q0 -165 -108.5 -267.5t-289.5 -125.5q184 -23 291 -125.5t107 -267.5v-474q0 -74 23.5 -104.5 t74.5 -30.5h66v-10h-70z" />
<glyph unicode="|" horiz-adv-x="755" d="M210 -289v1987h336v-1987h-336z" />
<glyph unicode="}" horiz-adv-x="735" d="M31 -297v10h65q51 0 75 30.5t24 104.5v474q0 166 107 268t290 125q-182 23 -289.5 126t-107.5 267v453q0 74 -24 104.5t-75 30.5h-65v10h69q109 0 202.5 -44t150.5 -123.5t57 -176.5v-464q0 -178 125 -178h70v-10h-70q-125 0 -125 -179v-484q0 -98 -58 -178t-151.5 -123 t-200.5 -43h-69z" />
<glyph unicode="~" horiz-adv-x="827" d="M511 582q-55 0 -99.5 15.5t-73.5 37.5t-54.5 44t-56 37.5t-65.5 15.5q-44 0 -63 -33h-10q18 78 78.5 120.5t148.5 42.5q54 0 99 -15.5t75 -37.5t57 -44t57 -37.5t62 -15.5q56 0 68 60h10q-10 -93 -73 -141.5t-160 -48.5z" />
<glyph unicode="&#xa1;" horiz-adv-x="509" d="M256 707q-70 0 -122 50.5t-52 121.5t51 122.5t123 51.5q71 0 121.5 -51t50.5 -123t-51.5 -122t-120.5 -50zM256 -430q-77 0 -118.5 53t-41.5 158q0 88 25 181t54.5 164t54.5 186.5t25 242.5h2q0 -111 16 -204.5t39.5 -158.5t46.5 -125t39 -132.5t16 -153.5 q0 -104 -41.5 -157.5t-116.5 -53.5z" />
<glyph unicode="&#xa2;" horiz-adv-x="991" d="M253 -160l-10 4l103 224q-105 77 -163.5 194.5t-58.5 249.5q0 148 67 271t187 195t268 73q-33 -7 -59.5 -28t-44.5 -49.5t-30.5 -71.5t-20 -84.5t-11.5 -98.5t-5 -103t-1 -108q0 -97 4 -154l162 349q-12 30 -12 65q0 58 32 102.5t85 62.5l161 347l10 -4l-156 -339 q25 5 42 5q71 0 122.5 -51t51.5 -123q0 -71 -51 -122.5t-123 -51.5q-51 0 -92.5 26t-63.5 70l-166 -358q30 -344 233 -352q-46 -7 -83 -7q-148 0 -275 88z" />
<glyph unicode="&#xa3;" horiz-adv-x="1206" d="M750 323q6 14 6 42q0 53 -69 122q-38 38 -91 76t-119.5 81t-98.5 66h-237v10h224q-220 151 -220 349q0 110 62.5 198t163 136.5t221.5 56.5q-88 -16 -130 -87t-42 -179q0 -149 115 -273q43 -47 102.5 -99t105.5 -102h275v-10h-266q92 -106 92 -225q0 -49 -27 -94t-67 -68 zM879 965q-71 0 -122.5 51t-51.5 123q0 71 51 122.5t123 51.5q71 0 122.5 -51t51.5 -123q0 -71 -51 -122.5t-123 -51.5zM834 -41q-139 0 -286 100q-60 39 -86 54.5t-67.5 31t-77.5 15.5q-44 0 -68 -24t-24 -62q0 -74 55 -96q-94 21 -146 85t-52 160q0 113 73.5 180.5 t192.5 67.5q123 0 309 -111q93 -55 166.5 -82.5t147.5 -27.5q61 0 98.5 23.5t37.5 62.5q0 18 -1 22q37 -68 4 -201q-27 -98 -98 -148t-178 -50z" />
<glyph unicode="&#xa4;" horiz-adv-x="1130" d="M508 1187q-20 -10 -36.5 -25t-28 -39t-19.5 -45t-13 -58.5t-8 -61.5t-4.5 -72.5t-1.5 -74v-82.5v-28v-23q0 -65 0.5 -96.5t2.5 -85t6 -81.5t12 -66t19.5 -59.5t29.5 -42t41 -31.5q-173 23 -300 140l-124 -110l-7 7l123 111q-149 144 -149 337q0 97 39.5 184t109.5 154 l-123 111l7 7l123 -110q127 117 301 140zM1075 701q0 -194 -147 -336l124 -112l-8 -7l-124 111q-128 -118 -302 -141q24 11 42 32t30 43t20 61t12 67.5t6 82t2.5 84t0.5 93.5v22q0 224 -11 300q-21 148 -102 186q176 -23 303 -140l123 110l8 -7l-124 -112q70 -67 108.5 -154 t38.5 -183z" />
<glyph unicode="&#xa5;" horiz-adv-x="1476" d="M425 0v10h180v617l-26 54h-352v10h346l-112 236h-234v10h229l-233 486h-179v11h758v-11h-202l231 -486h482v-10h-476l111 -236h365v-10h-364v-671h180v-10h-704z" />
<glyph unicode="&#xa6;" horiz-adv-x="755" d="M210 904v794h336v-794h-336zM210 -289v827h336v-827h-336z" />
<glyph unicode="&#xa7;" horiz-adv-x="1056" d="M920 382q3 12 3 26q0 105 -69 161.5t-210 99.5q-38 11 -118 33q-210 53 -310.5 140t-100.5 252q0 151 100 247t260 117q-70 -22 -107.5 -89t-37.5 -169q0 -87 50 -143.5t149 -91.5q177 -65 232 -92q198 -97 198 -337q0 -74 -39 -154zM784 954q-73 0 -123 50t-50 123 q0 74 51.5 124.5t121.5 50.5q71 0 122.5 -51.5t51.5 -123.5q0 -71 -51 -122t-123 -51zM581 -328q72 24 113 91.5t41 168.5q0 88 -49.5 143.5t-149.5 90.5q-17 6 -56 20t-62 22.5t-55.5 22t-59.5 26.5q-201 98 -201 338q0 94 50 181q-6 -31 -6 -57q0 -98 72 -160t203 -98 q232 -66 308 -97q228 -98 228 -329q0 -143 -107 -241t-269 -122zM269 -173q-73 0 -123 50t-50 123q0 74 51.5 124t121.5 50q71 0 122.5 -51t51.5 -123t-50.5 -122.5t-123.5 -50.5z" />
<glyph unicode="&#xa8;" horiz-adv-x="1042" d="M254 1194q-71 0 -121.5 50t-50.5 122q0 71 50 121.5t122 50.5q71 0 121.5 -50t50.5 -122q0 -71 -50 -121.5t-122 -50.5zM788 1194q-71 0 -121.5 50t-50.5 122q0 71 50 121.5t122 50.5t122.5 -50t50.5 -122q0 -71 -50.5 -121.5t-122.5 -50.5z" />
<glyph unicode="&#xa9;" horiz-adv-x="1761" d="M881 -31q-152 0 -290.5 59.5t-238.5 159.5t-159.5 238.5t-59.5 290.5t59 290t159 238t238.5 159.5t291.5 59.5q152 0 290 -59t238.5 -158.5t159.5 -238t59 -291.5t-59.5 -292t-160 -238.5t-238.5 -158.5t-289 -59zM881 -19q151 0 287.5 58.5t234.5 157.5t156 235t58 285 q0 150 -58 286.5t-156.5 235t-235 156.5t-286.5 58t-286.5 -58t-235 -156.5t-157 -235t-58.5 -286.5t58.5 -286.5t157 -235t235 -156.5t286.5 -58zM1193 821q-23 136 -85.5 256.5t-151.5 156.5q21 -4 78 -23t80 -19q30 0 51 16.5t28 42.5v-430zM806 190q-116 16 -208 93 t-141.5 190.5t-49.5 241.5q0 190 112 341t288 180q-46 -19 -76 -67.5t-44 -122.5t-19 -145t-5 -168q0 -100 5 -177t19 -158.5t44 -134.5t75 -70v-3zM1208 176q-9 28 -31.5 44t-52.5 16q-27 0 -93 -19t-89 -23q61 24 119.5 95.5t96 156t50.5 160.5v-430z" />
<glyph unicode="&#xaa;" horiz-adv-x="762" d="M678 714q-100 0 -166 52t-66 141v470q0 63 -24.5 95t-78.5 38q163 -3 251 -72q92 -72 92 -194v-404q0 -96 63 -96q14 0 28 6q-35 -36 -99 -36zM194 1179q-51 0 -88.5 37t-37.5 89t36.5 89t89.5 37q56 0 90.5 -36.5t34.5 -89.5q0 -55 -36.5 -90.5t-88.5 -35.5zM233 714 q-92 0 -147 51.5t-55 137.5q0 104 79.5 164.5t192.5 60.5q19 0 52 9q1 1 3 1q-89 -44 -89 -148v-137q0 -63 11 -92t44 -29q6 0 16 2q-45 -20 -107 -20z" />
<glyph unicode="&#xab;" horiz-adv-x="898" d="M449 328l-367 307v4l367 307v-10l-357 -299l357 -299v-10zM816 328l-366 307v4l366 307v-10l-356 -299l356 -299v-10z" />
<glyph unicode="&#xac;" horiz-adv-x="763" d="M636 362v231h-519v10h530v-241h-11z" />
<glyph unicode="&#xad;" horiz-adv-x="614" d="M117 593v10h530v-10h-530z" />
<glyph unicode="&#xae;" horiz-adv-x="1761" d="M881 -31q-152 0 -290.5 59.5t-238.5 159.5t-159.5 238.5t-59.5 290.5t59 290t159 238t238.5 159.5t291.5 59.5q152 0 290 -59t238.5 -158.5t159.5 -238t59 -291.5t-59.5 -292t-160 -238.5t-238.5 -158.5t-289 -59zM881 -19q151 0 287.5 58.5t234.5 157.5t156 235t58 285 q0 150 -58 286.5t-156.5 235t-235 156.5t-286.5 58t-286.5 -58t-235 -156.5t-157 -235t-58.5 -286.5t58.5 -286.5t157 -235t235 -156.5t286.5 -58zM542 269v954h228v-954h-228zM1290 250q-125 0 -191.5 61.5t-66.5 182.5v88q0 166 -149 185q63 8 87 53q27 51 27 168 q0 103 -26.5 160.5t-86.5 73.5q138 -6 231.5 -67.5t93.5 -166.5q0 -87 -74 -146t-178 -64v-21q136 -8 223 -73t87 -179v-118q0 -127 78 -132q-19 -5 -55 -5z" />
<glyph unicode="&#xaf;" horiz-adv-x="868" d="M118 1276v14h633v-14h-633z" />
<glyph unicode="&#xb0;" horiz-adv-x="502" d="M252 1237q-70 0 -120 50t-50 120t50 119.5t120 49.5t119.5 -49.5t49.5 -119.5t-49.5 -120t-119.5 -50zM252 1246q66 0 113 47.5t47 113.5t-47 113t-113 47t-113.5 -47t-47.5 -113t48 -113.5t113 -47.5z" />
<glyph unicode="&#xb1;" horiz-adv-x="990" d="M490 239v353h-372v10h372v403h11v-403h371v-10h-371v-353h-11zM118 114v10h752v-10h-752z" />
<glyph unicode="&#xb4;" horiz-adv-x="555" d="M93 1193l-8 12l385 279l8 -13z" />
<glyph unicode="&#xb6;" horiz-adv-x="1288" d="M584 -485q-155 0 -253 88t-98 237q0 72 50.5 121t125.5 49q71 0 122.5 -51t51.5 -123q0 -71 -51 -122.5t-123 -51.5q-60 0 -102.5 34t-57.5 95q6 -113 96 -189t216 -76q64 0 101 45t37 112v813h-87q-237 0 -383.5 129t-146.5 346q0 224 143.5 343.5t386.5 119.5h625v-11 h-197v-1550q0 -106 -67 -189.5t-170.5 -126t-218.5 -42.5zM598 -475q113 4 210 46t159 121.5t62 180.5v1550h-318v-1732q0 -69 -30 -112t-83 -54z" />
<glyph unicode="&#xb7;" horiz-adv-x="458" d="M229 551q-71 0 -122.5 51t-51.5 123q0 71 51 121.5t123 50.5q71 0 121.5 -50.5t50.5 -121.5t-50.5 -122.5t-121.5 -51.5z" />
<glyph unicode="&#xb8;" horiz-adv-x="555" d="M249 -439q-101 0 -141 63l6 5q25 -27 63 -27t65 30.5t27 73.5q0 64 -55 98l126 154q62 -29 98 -78.5t36 -111.5q0 -93 -65.5 -150t-159.5 -57z" />
<glyph unicode="&#xba;" horiz-adv-x="798" d="M360 714q-141 19 -235 129.5t-94 245.5t95 244.5t234 128.5q-29 -14 -46.5 -52t-23 -88.5t-7.5 -111.5t0 -121q2 -188 9 -238q14 -110 68 -137zM437 714q37 18 55.5 76.5t21 110t2.5 156.5v32v31q0 53 -0.5 79.5t-2 70t-7 68t-13.5 53t-22.5 45.5t-33.5 26 q142 -19 236.5 -128.5t94.5 -244.5q0 -138 -96.5 -247t-234.5 -128z" />
<glyph unicode="&#xbb;" horiz-adv-x="898" d="M82 328v10l356 299l-356 299v10l367 -307v-4zM450 328v10l356 299l-356 299v10l366 -307v-4z" />
<glyph unicode="&#xbf;" horiz-adv-x="1081" d="M559 706q-70 0 -121 51t-51 121t50.5 122t121.5 52t122.5 -51t51.5 -123q0 -71 -52.5 -121.5t-121.5 -50.5zM595 -431q-112 0 -210.5 21.5t-179 64t-127.5 114.5t-47 166q0 62 20.5 111t62.5 87t91.5 66t120.5 57q155 60 203 90q92 57 92 140v34q21 -60 21 -113 q0 -61 -28.5 -118.5t-68.5 -105t-80.5 -97t-69 -116t-28.5 -141.5q0 -121 59 -189t169 -71zM856 -302q-71 0 -122.5 51t-51.5 123t51 122.5t123 50.5q73 0 123 -50t50 -123q0 -74 -51.5 -124t-121.5 -50z" />
<glyph unicode="&#xc0;" horiz-adv-x="1206" d="M792 1603l-385 278l8 12l385 -278zM786 0l-390 972l178 496l595 -1468h-383z" />
<glyph unicode="&#xc1;" horiz-adv-x="1206" d="M415 1603l-8 12l385 278l8 -12zM786 0l-390 972l178 496l595 -1468h-383z" />
<glyph unicode="&#xc2;" horiz-adv-x="1206" d="M226 1603l-8 12l385 278l385 -278l-8 -12l-377 272zM786 0l-390 972l178 496l595 -1468h-383z" />
<glyph unicode="&#xc3;" horiz-adv-x="1206" d="M697 1626q-55 0 -99.5 15.5t-73.5 38t-54.5 44.5t-56 37.5t-65.5 15.5q-43 0 -62 -33h-11q18 78 78.5 120.5t149.5 42.5q54 0 99 -15.5t75 -37.5t56.5 -44.5t56.5 -38t62 -15.5q57 0 69 61h10q-10 -93 -73.5 -142t-160.5 -49zM786 0l-390 972l178 496l595 -1468h-383z " />
<glyph unicode="&#xc4;" horiz-adv-x="1206" d="M336 1604q-71 0 -121.5 50t-50.5 122q0 71 50 121.5t122 50.5q71 0 121.5 -50t50.5 -122q0 -71 -50 -121.5t-122 -50.5zM870 1604q-71 0 -121.5 50t-50.5 122q0 71 50 121.5t122 50.5q71 0 121.5 -50t50.5 -122q0 -71 -50 -121.5t-122 -50.5zM786 0l-390 972l178 496 l595 -1468h-383z" />
<glyph unicode="&#xc5;" horiz-adv-x="1206" d="M603 1606q-70 0 -120 50t-50 120t50 119.5t120 49.5t119.5 -49.5t49.5 -119.5t-49.5 -120t-119.5 -50zM603 1620q64 0 109.5 46t45.5 110t-45.5 109t-109.5 45t-110 -45t-46 -109t46 -110t110 -46zM786 0l-390 972l178 496l595 -1468h-383z" />
<glyph unicode="&#xc6;" horiz-adv-x="1823" d="M786 0l-390 972l178 496l595 -1468h-383zM1668 959q-20 92 -55.5 168t-89.5 141.5t-134 108t-180 57.5h459v-475zM1434 439q-27 120 -88 199t-159 97q96 16 159.5 98t87.5 198v-592zM1286 0q184 29 301 166.5t155 340.5v-507h-456z" />
<glyph unicode="&#xc7;" horiz-adv-x="1274" d="M658 -30q-169 21 -301.5 130t-203.5 272t-71 349q0 179 74.5 341.5t211.5 272t306 130.5q-50 -17 -88 -53t-63 -91.5t-41.5 -117.5t-25 -144.5t-11.5 -158t-3 -172.5v-9q0 -88 3 -162.5t11 -157t24 -149t39 -125t58.5 -98.5t80.5 -57zM1022 974q-69 0 -119.5 50 t-50.5 120q0 71 49.5 121t120.5 50q72 0 121.5 -49t49.5 -122q0 -71 -50 -120.5t-121 -49.5zM595 -439q-101 0 -141 63l6 5q25 -27 63 -27t65 30.5t27 73.5q0 64 -55 98l126 154q62 -29 98 -78.5t36 -111.5q0 -93 -65.5 -150t-159.5 -57z" />
<glyph unicode="&#xc8;" horiz-adv-x="1133" d="M755 1603l-385 278l8 12l385 -278zM82 0v1434h344v-1434h-344zM978 959q-42 187 -143 316.5t-254 158.5h397v-475zM743 439q-58 262 -246 296q96 16 159 98t87 198v-592zM596 0q184 29 301 166.5t155 340.5v-507h-456z" />
<glyph unicode="&#xc9;" horiz-adv-x="1133" d="M378 1603l-8 12l385 278l8 -12zM82 0v1434h344v-1434h-344zM978 959q-42 187 -143 316.5t-254 158.5h397v-475zM743 439q-58 262 -246 296q96 16 159 98t87 198v-592zM596 0q184 29 301 166.5t155 340.5v-507h-456z" />
<glyph unicode="&#xca;" horiz-adv-x="1133" d="M189 1603l-8 12l385 278l385 -278l-8 -12l-377 272zM82 0v1434h344v-1434h-344zM978 959q-42 187 -143 316.5t-254 158.5h397v-475zM743 439q-58 262 -246 296q96 16 159 98t87 198v-592zM596 0q184 29 301 166.5t155 340.5v-507h-456z" />
<glyph unicode="&#xcb;" horiz-adv-x="1133" d="M299 1604q-71 0 -121.5 50t-50.5 122q0 71 50 121.5t122 50.5q71 0 121.5 -50t50.5 -122q0 -71 -50 -121.5t-122 -50.5zM834 1604q-71 0 -121.5 50t-50.5 122q0 71 50 121.5t122 50.5q71 0 121.5 -50t50.5 -122q0 -71 -50 -121.5t-122 -50.5zM82 0v1434h344v-1434h-344z M978 959q-42 187 -143 316.5t-254 158.5h397v-475zM743 439q-58 262 -246 296q96 16 159 98t87 198v-592zM596 0q184 29 301 166.5t155 340.5v-507h-456z" />
<glyph unicode="&#xcc;" horiz-adv-x="507" d="M442 1603l-385 278l9 12l385 -278zM82 0v1434h344v-1434h-344z" />
<glyph unicode="&#xcd;" horiz-adv-x="507" d="M66 1603l-9 12l385 278l9 -12zM82 0v1434h344v-1434h-344z" />
<glyph unicode="&#xce;" horiz-adv-x="507" d="M-123 1603l-8 12l385 278l385 -278l-8 -12l-377 272zM82 0v1434h344v-1434h-344z" />
<glyph unicode="&#xcf;" horiz-adv-x="507" d="M-13 1604q-71 0 -121.5 50t-50.5 122q0 71 50 121.5t122 50.5q71 0 121.5 -50t50.5 -122q0 -71 -50 -121.5t-122 -50.5zM521 1604q-71 0 -121.5 50t-50.5 122q0 71 50 121.5t122 50.5q71 0 121.5 -50t50.5 -122q0 -71 -50 -121.5t-122 -50.5zM82 0v1434h344v-1434h-344z " />
<glyph unicode="&#xd0;" horiz-adv-x="1562" d="M246 0v712h-180v10h180v712h344v-712h224v-10h-224v-712h-344zM881 18q68 24 116 74t75.5 110.5t43.5 149.5t20.5 170.5t4.5 194.5t-4.5 195.5t-20.5 171.5t-43 150t-75 110t-115 71q266 -57 432 -247t166 -451q0 -262 -168 -453.5t-432 -245.5z" />
<glyph unicode="&#xd1;" horiz-adv-x="1101" d="M645 1626q-55 0 -99.5 15.5t-73.5 38t-54.5 44.5t-56 37.5t-65.5 15.5q-44 0 -63 -33h-10q18 78 78.5 120.5t149.5 42.5q54 0 99 -15.5t75 -37.5t56.5 -44.5t56.5 -38t62 -15.5q56 0 68 61h11q-10 -93 -73.5 -142t-160.5 -49zM1020 -20l-938 1347v107h356l582 -834v-620z " />
<glyph unicode="&#xd2;" horiz-adv-x="1572" d="M871 1562l-385 278l9 12l385 -278zM675 -18q-152 31 -287 135q-139 108 -219 258q-87 163 -87 342q0 171 83 330q75 145 209 250q127 100 280 139q-107 -47 -156 -212q-49 -166 -49 -507q0 -356 54 -528q53 -168 172 -207zM910 -16q115 44 164 211q50 169 50 522 q0 346 -50 510q-50 163 -162 208q112 -27 217 -92t185 -158q177 -210 177 -468q0 -265 -179 -479q-81 -97 -186 -163t-216 -91z" />
<glyph unicode="&#xd3;" horiz-adv-x="1572" d="M598 1603l-8 12l385 278l8 -12zM656 -20q-159 37 -291 146t-207.5 264t-75.5 321q0 254 165 463.5t409 269.5q-46 -20 -81 -59t-57 -96.5t-36 -118.5t-21 -144t-9 -152t-2 -163t2.5 -164t9 -152.5t21 -143t36.5 -117.5t56.5 -95.5t80.5 -58.5zM919 -20q46 20 81 59 t57 96.5t36.5 118t21 143t9 152t2.5 162.5q0 94 -2.5 164.5t-9 153t-21 143.5t-36.5 118t-57 95.5t-81 58.5q245 -61 408.5 -270t163.5 -463q0 -255 -164 -463t-408 -268z" />
<glyph unicode="&#xd4;" horiz-adv-x="1572" d="M410 1603l-9 12l385 278l385 -278l-8 -12l-377 272zM656 -20q-159 37 -291 146t-207.5 264t-75.5 321q0 254 165 463.5t409 269.5q-46 -20 -81 -59t-57 -96.5t-36 -118.5t-21 -144t-9 -152t-2 -163t2.5 -164t9 -152.5t21 -143t36.5 -117.5t56.5 -95.5t80.5 -58.5z M919 -20q46 20 81 59t57 96.5t36.5 118t21 143t9 152t2.5 162.5q0 94 -2.5 164.5t-9 153t-21 143.5t-36.5 118t-57 95.5t-81 58.5q245 -61 408.5 -270t163.5 -463q0 -255 -164 -463t-408 -268z" />
<glyph unicode="&#xd5;" horiz-adv-x="1572" d="M881 1626q-55 0 -99.5 15.5t-73.5 38t-55 44.5t-56.5 37.5t-65.5 15.5q-43 0 -62 -33h-10q18 78 78.5 120.5t148.5 42.5q54 0 99 -15.5t75 -37.5t56.5 -44.5t56.5 -38t62 -15.5q57 0 69 61h10q-10 -93 -73 -142t-160 -49zM656 -20q-159 37 -291 146t-207.5 264t-75.5 321 q0 254 165 463.5t409 269.5q-46 -20 -81 -59t-57 -96.5t-36 -118.5t-21 -144t-9 -152t-2 -163t2.5 -164t9 -152.5t21 -143t36.5 -117.5t56.5 -95.5t80.5 -58.5zM919 -20q46 20 81 59t57 96.5t36.5 118t21 143t9 152t2.5 162.5q0 94 -2.5 164.5t-9 153t-21 143.5t-36.5 118 t-57 95.5t-81 58.5q245 -61 408.5 -270t163.5 -463q0 -255 -164 -463t-408 -268z" />
<glyph unicode="&#xd6;" horiz-adv-x="1572" d="M519 1604q-71 0 -121.5 50t-50.5 122q0 71 50 121.5t122 50.5q71 0 121.5 -50t50.5 -122q0 -71 -50 -121.5t-122 -50.5zM1054 1604q-71 0 -121.5 50t-50.5 122q0 71 50 121.5t122 50.5q71 0 121.5 -50t50.5 -122q0 -71 -50 -121.5t-122 -50.5zM656 -20q-159 37 -291 146 t-207.5 264t-75.5 321q0 254 165 463.5t409 269.5q-46 -20 -81 -59t-57 -96.5t-36 -118.5t-21 -144t-9 -152t-2 -163t2.5 -164t9 -152.5t21 -143t36.5 -117.5t56.5 -95.5t80.5 -58.5zM919 -20q46 20 81 59t57 96.5t36.5 118t21 143t9 152t2.5 162.5q0 94 -2.5 164.5t-9 153 t-21 143.5t-36.5 118t-57 95.5t-81 58.5q245 -61 408.5 -270t163.5 -463q0 -255 -164 -463t-408 -268z" />
<glyph unicode="&#xd7;" horiz-adv-x="932" d="M126 249l-8 9l340 340l-340 340l9 8l339 -340l340 340l9 -8l-340 -340l340 -340l-8 -9l-341 340z" />
<glyph unicode="&#xd8;" horiz-adv-x="1572" d="M469 -123l-10 4l58 155q-189 90 -306 268q-129 193 -129 413q0 171 83 330q75 145 209 250q127 100 280 139l3 -5q-55 -24 -93 -74t-64 -135q-51 -168 -51 -505q0 -458 93 -617l475 1243q-45 63 -107 88l2 4q79 -21 123 -42l68 176l10 -4l-67 -176q187 -86 314 -264 q131 -188 131 -408q0 -265 -179 -479q-81 -97 -186 -163t-216 -91l-2 5q116 45 165 208q51 169 51 520q0 237 -24 387q-23 146 -76 228l-474 -1243q48 -77 126 -101l-1 -6q-79 16 -148 49z" />
<glyph unicode="&#xd9;" horiz-adv-x="1296" d="M837 1603l-385 278l8 12l385 -278zM639 -32q-264 0 -410.5 119t-146.5 360v986h343v-1051q0 -205 61 -299.5t224 -94.5q93 0 157 32q-88 -52 -228 -52z" />
<glyph unicode="&#xda;" horiz-adv-x="1296" d="M460 1603l-8 12l385 278l8 -12zM639 -32q-264 0 -410.5 119t-146.5 360v986h343v-1051q0 -205 61 -299.5t224 -94.5q93 0 157 32q-88 -52 -228 -52z" />
<glyph unicode="&#xdb;" horiz-adv-x="1296" d="M271 1603l-8 12l385 278l385 -278l-8 -12l-377 272zM639 -32q-264 0 -410.5 119t-146.5 360v986h343v-1051q0 -205 61 -299.5t224 -94.5q93 0 157 32q-88 -52 -228 -52z" />
<glyph unicode="&#xdc;" horiz-adv-x="1296" d="M381 1604q-71 0 -121.5 50t-50.5 122q0 71 50 121.5t122 50.5q71 0 121.5 -50t50.5 -122q0 -71 -50 -121.5t-122 -50.5zM915 1604q-71 0 -121.5 50t-50.5 122q0 71 50 121.5t122 50.5q71 0 121.5 -50t50.5 -122q0 -71 -50 -121.5t-122 -50.5zM639 -32q-264 0 -410.5 119 t-146.5 360v986h343v-1051q0 -205 61 -299.5t224 -94.5q93 0 157 32q-88 -52 -228 -52z" />
<glyph unicode="&#xdd;" horiz-adv-x="1200" d="M412 1603l-9 12l385 278l9 -12zM469 0v627l-387 807h377l354 -745v-689h-344z" />
<glyph unicode="&#xde;" horiz-adv-x="1378" d="M246 0v1434h344v-1434h-344zM809 274q-56 0 -135 17q92 -18 155.5 4.5t98 84.5t49 144.5t14.5 198.5q0 104 -16 185t-51 144.5t-95.5 101t-144.5 44.5q183 0 318 -50t214.5 -158.5t79.5 -266.5q0 -218 -130.5 -333.5t-356.5 -115.5z" />
<glyph unicode="&#xdf;" horiz-adv-x="1478" d="M222 0v1126q0 176 109 276t322 114q-58 -17 -80.5 -71t-22.5 -148v-1297h-328zM1062 -18q115 46 115 247q0 53 -13 93.5t-45.5 75.5t-65 59.5t-92.5 62.5q-117 71 -167.5 135t-50.5 171q0 56 22.5 98t60 72t78 55.5t86.5 62.5t75 79q-6 -55 -40.5 -133t-34.5 -122 q0 -43 40.5 -78.5t119.5 -83t122 -84.5q130 -112 130 -296q0 -164 -90.5 -275t-249.5 -139zM791 135q-71 0 -122.5 51t-51.5 122t51.5 122t122.5 51t122 -51t51 -122t-51 -122t-122 -51z" />
<glyph unicode="&#xe0;" horiz-adv-x="1168" d="M772 1193l-385 278l8 13l385 -279zM953 -25q-156 0 -233.5 68t-77.5 194v632q0 84 -33.5 128t-106.5 52q135 -3 237.5 -42.5t163.5 -120.5t61 -196v-545q0 -128 85 -128q23 0 37 8q-47 -50 -133 -50zM301 601q-69 0 -119 50t-50 120t49.5 120t119.5 50q71 0 120.5 -49.5 t49.5 -120.5q0 -72 -50.5 -121t-119.5 -49zM354 -25q-121 0 -196.5 69.5t-75.5 186.5q0 138 102 217t265 86q34 1 70 11q1 1 3 1q-119 -59 -119 -198v-184q0 -85 13.5 -124t59.5 -39q9 0 23 2q-65 -28 -145 -28z" />
<glyph unicode="&#xe1;" horiz-adv-x="1168" d="M395 1193l-8 12l385 279l8 -13zM953 -25q-156 0 -233.5 68t-77.5 194v632q0 84 -33.5 128t-106.5 52q135 -3 237.5 -42.5t163.5 -120.5t61 -196v-545q0 -128 85 -128q23 0 37 8q-47 -50 -133 -50zM301 601q-69 0 -119 50t-50 120t49.5 120t119.5 50q71 0 120.5 -49.5 t49.5 -120.5q0 -72 -50.5 -121t-119.5 -49zM354 -25q-121 0 -196.5 69.5t-75.5 186.5q0 138 102 217t265 86q34 1 70 11q1 1 3 1q-119 -59 -119 -198v-184q0 -85 13.5 -124t59.5 -39q9 0 23 2q-65 -28 -145 -28z" />
<glyph unicode="&#xe2;" horiz-adv-x="1168" d="M207 1193l-8 12l385 279l385 -279l-8 -12l-377 272zM953 -25q-156 0 -233.5 68t-77.5 194v632q0 84 -33.5 128t-106.5 52q135 -3 237.5 -42.5t163.5 -120.5t61 -196v-545q0 -128 85 -128q23 0 37 8q-47 -50 -133 -50zM301 601q-69 0 -119 50t-50 120t49.5 120t119.5 50 q71 0 120.5 -49.5t49.5 -120.5q0 -72 -50.5 -121t-119.5 -49zM354 -25q-121 0 -196.5 69.5t-75.5 186.5q0 138 102 217t265 86q34 1 70 11q1 1 3 1q-119 -59 -119 -198v-184q0 -85 13.5 -124t59.5 -39q9 0 23 2q-65 -28 -145 -28z" />
<glyph unicode="&#xe3;" horiz-adv-x="1168" d="M678 1217q-55 0 -99.5 15.5t-73.5 37.5t-54.5 44t-56 37.5t-65.5 15.5q-44 0 -63 -33h-10q18 78 78.5 120.5t148.5 42.5q54 0 99 -15.5t75 -37.5t57 -44t57 -37.5t62 -15.5q56 0 68 60h10q-10 -93 -73 -141.5t-160 -48.5zM953 -25q-156 0 -233.5 68t-77.5 194v632 q0 84 -33.5 128t-106.5 52q135 -3 237.5 -42.5t163.5 -120.5t61 -196v-545q0 -128 85 -128q23 0 37 8q-47 -50 -133 -50zM301 601q-69 0 -119 50t-50 120t49.5 120t119.5 50q71 0 120.5 -49.5t49.5 -120.5q0 -72 -50.5 -121t-119.5 -49zM354 -25q-121 0 -196.5 69.5 t-75.5 186.5q0 138 102 217t265 86q34 1 70 11q1 1 3 1q-119 -59 -119 -198v-184q0 -85 13.5 -124t59.5 -39q9 0 23 2q-65 -28 -145 -28z" />
<glyph unicode="&#xe4;" horiz-adv-x="1168" d="M316 1194q-71 0 -121.5 50t-50.5 122q0 71 50 121.5t122 50.5q71 0 121.5 -50t50.5 -122q0 -71 -50 -121.5t-122 -50.5zM851 1194q-71 0 -121.5 50t-50.5 122q0 71 50 121.5t122 50.5q71 0 121.5 -50t50.5 -122q0 -71 -50 -121.5t-122 -50.5zM953 -25q-156 0 -233.5 68 t-77.5 194v632q0 84 -33.5 128t-106.5 52q135 -3 237.5 -42.5t163.5 -120.5t61 -196v-545q0 -128 85 -128q23 0 37 8q-47 -50 -133 -50zM301 601q-69 0 -119 50t-50 120t49.5 120t119.5 50q71 0 120.5 -49.5t49.5 -120.5q0 -72 -50.5 -121t-119.5 -49zM354 -25 q-121 0 -196.5 69.5t-75.5 186.5q0 138 102 217t265 86q34 1 70 11q1 1 3 1q-119 -59 -119 -198v-184q0 -85 13.5 -124t59.5 -39q9 0 23 2q-65 -28 -145 -28z" />
<glyph unicode="&#xe5;" horiz-adv-x="1168" d="M585 1196q-70 0 -120 50t-50 120t50 119.5t120 49.5t119.5 -49.5t49.5 -119.5t-49.5 -120t-119.5 -50zM585 1210q64 0 109 46t45 110t-45 109.5t-109 45.5t-110 -45.5t-46 -109.5t46 -110t110 -46zM953 -25q-156 0 -233.5 68t-77.5 194v632q0 84 -33.5 128t-106.5 52 q135 -3 237.5 -42.5t163.5 -120.5t61 -196v-545q0 -128 85 -128q23 0 37 8q-47 -50 -133 -50zM301 601q-69 0 -119 50t-50 120t49.5 120t119.5 50q71 0 120.5 -49.5t49.5 -120.5q0 -72 -50.5 -121t-119.5 -49zM354 -25q-121 0 -196.5 69.5t-75.5 186.5q0 138 102 217t265 86 q34 1 70 11q1 1 3 1q-119 -59 -119 -198v-184q0 -85 13.5 -124t59.5 -39q9 0 23 2q-65 -28 -145 -28z" />
<glyph unicode="&#xe6;" horiz-adv-x="1677" d="M1059 -28q-189 0 -295 54t-106 168v683q0 151 -134 171q213 -6 336 -106l4 -3l4 3q103 83 223 101q-31 -16 -51 -53t-28 -97.5t-10 -109.5t-2 -130v-198q0 -71 1.5 -117t6.5 -100t14.5 -87t26.5 -66.5t42 -51.5t60.5 -29.5t81.5 -11.5h19t16.5 0.5t7.5 0.5 q-85 -21 -217 -21zM1282 519v54q0 108 -1 163.5t-7 131.5t-21.5 117.5t-41.5 58.5q178 -26 293.5 -178t117.5 -347h-340zM315 595q-72 0 -123.5 51t-51.5 123t51 123t124 51q71 0 122.5 -51t51.5 -123q0 -71 -51 -122.5t-123 -51.5zM367 -28q-121 0 -197 69.5t-76 186.5 q0 136 103 216.5t262 86.5q39 2 70 10q-117 -64 -117 -197v-184q0 -39 2.5 -64.5t9.5 -50.5t23.5 -37t41.5 -12q5 0 19 2q-60 -26 -141 -26z" />
<glyph unicode="&#xe7;" horiz-adv-x="1011" d="M606 -26q-111 0 -209.5 43.5t-167 116.5t-108 171t-39.5 206q0 149 69 272.5t189 194.5t264 71q-31 -6 -56 -21t-43 -41t-31 -54t-21.5 -69.5t-13.5 -77.5t-7.5 -89t-3 -92t-0.5 -98q0 -508 178 -533zM759 600q-69 0 -119 50t-50 120t49.5 119.5t119.5 49.5 q73 0 122 -49.5t49 -119.5q0 -72 -50.5 -121t-120.5 -49zM464 -439q-101 0 -141 63l6 5q25 -27 63 -27t65 30.5t27 73.5q0 64 -55 98l126 154q62 -29 98 -78.5t36 -111.5q0 -93 -65.5 -150t-159.5 -57z" />
<glyph unicode="&#xe8;" horiz-adv-x="1124" d="M751 1193l-385 278l8 13l385 -279zM700 524v61q0 108 -1 163t-7 131t-21 116t-41 55q179 -26 294.5 -178t117.5 -348h-342zM573 -20q-131 0 -245 75t-180 199t-66 262q0 128 57.5 244.5t157.5 194t219 94.5q-17 -8 -30 -20.5t-22 -33.5t-15.5 -39.5t-10.5 -51t-6.5 -53.5 t-3.5 -62.5t-1 -62.5v-68v-197q0 -73 1 -117.5t6 -99.5t14 -87t25.5 -66t40.5 -51.5t58.5 -29t80.5 -11.5q68 0 129 23q-90 -42 -209 -42z" />
<glyph unicode="&#xe9;" horiz-adv-x="1124" d="M374 1193l-8 12l385 279l8 -13zM700 524v61q0 108 -1 163t-7 131t-21 116t-41 55q179 -26 294.5 -178t117.5 -348h-342zM573 -20q-131 0 -245 75t-180 199t-66 262q0 128 57.5 244.5t157.5 194t219 94.5q-17 -8 -30 -20.5t-22 -33.5t-15.5 -39.5t-10.5 -51t-6.5 -53.5 t-3.5 -62.5t-1 -62.5v-68v-197q0 -73 1 -117.5t6 -99.5t14 -87t25.5 -66t40.5 -51.5t58.5 -29t80.5 -11.5q68 0 129 23q-90 -42 -209 -42z" />
<glyph unicode="&#xea;" horiz-adv-x="1124" d="M185 1193l-8 12l385 279l385 -279l-8 -12l-377 272zM700 524v61q0 108 -1 163t-7 131t-21 116t-41 55q179 -26 294.5 -178t117.5 -348h-342zM573 -20q-131 0 -245 75t-180 199t-66 262q0 128 57.5 244.5t157.5 194t219 94.5q-17 -8 -30 -20.5t-22 -33.5t-15.5 -39.5 t-10.5 -51t-6.5 -53.5t-3.5 -62.5t-1 -62.5v-68v-197q0 -73 1 -117.5t6 -99.5t14 -87t25.5 -66t40.5 -51.5t58.5 -29t80.5 -11.5q68 0 129 23q-90 -42 -209 -42z" />
<glyph unicode="&#xeb;" horiz-adv-x="1124" d="M295 1194q-71 0 -121.5 50t-50.5 122q0 71 50 121.5t122 50.5q71 0 121.5 -50t50.5 -122q0 -71 -50 -121.5t-122 -50.5zM829 1194q-71 0 -121.5 50t-50.5 122q0 71 50 121.5t122 50.5q71 0 121.5 -50t50.5 -122q0 -71 -50 -121.5t-122 -50.5zM700 524v61q0 108 -1 163 t-7 131t-21 116t-41 55q179 -26 294.5 -178t117.5 -348h-342zM573 -20q-131 0 -245 75t-180 199t-66 262q0 128 57.5 244.5t157.5 194t219 94.5q-17 -8 -30 -20.5t-22 -33.5t-15.5 -39.5t-10.5 -51t-6.5 -53.5t-3.5 -62.5t-1 -62.5v-68v-197q0 -73 1 -117.5t6 -99.5t14 -87 t25.5 -66t40.5 -51.5t58.5 -29t80.5 -11.5q68 0 129 23q-90 -42 -209 -42z" />
<glyph unicode="&#xec;" horiz-adv-x="768" d="M572 1193l-385 278l9 13l385 -279zM225 0v1024h328v-1024h-328z" />
<glyph unicode="&#xed;" horiz-adv-x="768" d="M196 1193l-9 12l385 279l9 -13zM225 0v1024h328v-1024h-328z" />
<glyph unicode="&#xee;" horiz-adv-x="768" d="M7 1193l-8 12l385 279l385 -279l-8 -12l-377 272zM225 0v1024h328v-1024h-328z" />
<glyph unicode="&#xef;" horiz-adv-x="768" d="M117 1194q-71 0 -121.5 50t-50.5 122q0 71 50 121.5t122 50.5q71 0 121.5 -50t50.5 -122q0 -71 -50 -121.5t-122 -50.5zM651 1194q-71 0 -121.5 50t-50.5 122q0 71 50 121.5t122 50.5q71 0 121.5 -50t50.5 -122q0 -71 -50 -121.5t-122 -50.5zM225 0v1024h328v-1024h-328z " />
<glyph unicode="&#xf0;" horiz-adv-x="1302" d="M672 -25q33 10 59.5 33.5t46 60.5t34 78t23.5 97t15 107t8.5 119t3.5 122t1 125q0 361 -57 531l-213 -120l-5 10l214 119q-35 100 -92 149t-146 56q211 -5 372 -130l155 87l5 -9l-152 -85q127 -102 202 -268.5t75 -339.5q0 -186 -65.5 -347t-192 -268.5t-291.5 -126.5z M353 973q-72 0 -123.5 51t-51.5 123t51 123.5t124 51.5t123.5 -52t50.5 -123t-51 -122.5t-123 -51.5zM542 -25q-193 23 -326.5 151.5t-133.5 309.5q0 188 136.5 323.5t320.5 135.5q118 0 196 -49q-33 14 -102 14q-64 0 -111.5 -38.5t-74 -104t-39.5 -141.5t-13 -160 q0 -158 34 -283t113 -158z" />
<glyph unicode="&#xf1;" horiz-adv-x="1059" d="M624 1217q-55 0 -99.5 15.5t-73.5 37.5t-55 44t-56.5 37.5t-65.5 15.5q-43 0 -62 -33h-10q18 78 78.5 120.5t148.5 42.5q54 0 99 -15.5t75 -37.5t56.5 -44t56.5 -37.5t62 -15.5q57 0 69 60h10q-10 -93 -73 -141.5t-160 -48.5zM655 0v812q0 47 -1 74t-6 58t-15 47 t-27.5 26.5t-43.5 10.5q-12 0 -22 -3q50 22 105 22q158 0 245.5 -101.5t87.5 -272.5v-673h-323zM82 0v1024h324v-1024h-324z" />
<glyph unicode="&#xf2;" horiz-adv-x="1187" d="M782 1193l-385 278l9 13l385 -279zM539 -24q-124 17 -229.5 95.5t-166.5 195.5t-61 243t61 243t166.5 195t229.5 95q-20 -10 -36.5 -26t-28 -43t-19.5 -50t-13 -65.5t-8 -68.5t-4.5 -79.5t-1.5 -79.5v-87v-34q0 -249 12 -338q23 -159 99 -196zM649 -24q21 10 37.5 27 t28 44t20 52t13.5 67t8 71t4.5 82t1.5 81.5v86.5v23q0 244 -12 330q-22 166 -101 203q125 -17 231 -96t166 -195.5t60 -241.5q0 -193 -135.5 -351t-321.5 -183z" />
<glyph unicode="&#xf3;" horiz-adv-x="1187" d="M406 1193l-9 12l385 279l9 -13zM539 -24q-124 17 -229.5 95.5t-166.5 195.5t-61 243t61 243t166.5 195t229.5 95q-20 -10 -36.5 -26t-28 -43t-19.5 -50t-13 -65.5t-8 -68.5t-4.5 -79.5t-1.5 -79.5v-87v-34q0 -249 12 -338q23 -159 99 -196zM649 -24q21 10 37.5 27t28 44 t20 52t13.5 67t8 71t4.5 82t1.5 81.5v86.5v23q0 244 -12 330q-22 166 -101 203q125 -17 231 -96t166 -195.5t60 -241.5q0 -193 -135.5 -351t-321.5 -183z" />
<glyph unicode="&#xf4;" horiz-adv-x="1187" d="M217 1193l-8 12l385 279l385 -279l-8 -12l-377 272zM539 -24q-124 17 -229.5 95.5t-166.5 195.5t-61 243t61 243t166.5 195t229.5 95q-20 -10 -36.5 -26t-28 -43t-19.5 -50t-13 -65.5t-8 -68.5t-4.5 -79.5t-1.5 -79.5v-87v-34q0 -249 12 -338q23 -159 99 -196zM649 -24 q21 10 37.5 27t28 44t20 52t13.5 67t8 71t4.5 82t1.5 81.5v86.5v23q0 244 -12 330q-22 166 -101 203q125 -17 231 -96t166 -195.5t60 -241.5q0 -193 -135.5 -351t-321.5 -183z" />
<glyph unicode="&#xf5;" horiz-adv-x="1187" d="M688 1217q-55 0 -99.5 15.5t-73.5 37.5t-54.5 44t-56 37.5t-65.5 15.5q-44 0 -63 -33h-10q18 78 78.5 120.5t149.5 42.5q54 0 99 -15.5t75 -37.5t56.5 -44t56.5 -37.5t62 -15.5q56 0 68 60h11q-10 -93 -73.5 -141.5t-160.5 -48.5zM539 -24q-124 17 -229.5 95.5 t-166.5 195.5t-61 243t61 243t166.5 195t229.5 95q-20 -10 -36.5 -26t-28 -43t-19.5 -50t-13 -65.5t-8 -68.5t-4.5 -79.5t-1.5 -79.5v-87v-34q0 -249 12 -338q23 -159 99 -196zM649 -24q21 10 37.5 27t28 44t20 52t13.5 67t8 71t4.5 82t1.5 81.5v86.5v23q0 244 -12 330 q-22 166 -101 203q125 -17 231 -96t166 -195.5t60 -241.5q0 -193 -135.5 -351t-321.5 -183z" />
<glyph unicode="&#xf6;" horiz-adv-x="1187" d="M327 1194q-71 0 -121.5 50t-50.5 122q0 71 50 121.5t122 50.5q71 0 121.5 -50t50.5 -122q0 -71 -50 -121.5t-122 -50.5zM861 1194q-71 0 -121.5 50t-50.5 122q0 71 50 121.5t122 50.5q71 0 121.5 -50t50.5 -122q0 -71 -50 -121.5t-122 -50.5zM539 -24 q-124 17 -229.5 95.5t-166.5 195.5t-61 243t61 243t166.5 195t229.5 95q-20 -10 -36.5 -26t-28 -43t-19.5 -50t-13 -65.5t-8 -68.5t-4.5 -79.5t-1.5 -79.5v-87v-34q0 -249 12 -338q23 -159 99 -196zM649 -24q21 10 37.5 27t28 44t20 52t13.5 67t8 71t4.5 82t1.5 81.5v86.5 v23q0 244 -12 330q-22 166 -101 203q125 -17 231 -96t166 -195.5t60 -241.5q0 -193 -135.5 -351t-321.5 -183z" />
<glyph unicode="&#xf7;" horiz-adv-x="694" d="M349 770q-70 0 -120 50t-50 120t50 119.5t120 49.5t119.5 -49.5t49.5 -119.5t-49.5 -120t-119.5 -50zM349 780q65 0 112 47.5t47 112.5t-47 112t-112 47t-112.5 -46.5t-47.5 -112.5q0 -65 47.5 -112.5t112.5 -47.5zM-20 593v10h735v-10h-735zM349 53q-70 0 -120 50 t-50 120t50 119.5t120 49.5t119.5 -49.5t49.5 -119.5t-49.5 -120t-119.5 -50zM349 63q65 0 112 47.5t47 112.5t-47 112t-112 47t-112.5 -46.5t-47.5 -112.5q0 -65 47.5 -112.5t112.5 -47.5z" />
<glyph unicode="&#xf8;" horiz-adv-x="1181" d="M326 -121l-11 4l57 148q-128 68 -211 198q-85 133 -85 283q0 198 141 357q139 156 323 179v-6q-76 -33 -99 -185q-15 -101 -15 -345q0 -219 11 -308l282 740q-25 72 -73 97v6q52 -7 102 -27l64 169l10 -4l-64 -169q150 -63 244 -197q102 -145 102 -307q0 -196 -140 -356 q-65 -74 -148.5 -121.5t-172.5 -58.5v6q76 35 98 186q15 101 15 344q0 308 -32 416l-284 -747q24 -167 106 -200v-6q-84 9 -165 51z" />
<glyph unicode="&#xf9;" horiz-adv-x="1059" d="M718 1193l-385 278l8 13l385 -279zM415 -23q-158 0 -245.5 101.5t-87.5 272.5v673h322v-812q0 -58 2.5 -90.5t11.5 -65t28.5 -46.5t51.5 -14q11 0 22 3q-50 -22 -105 -22zM654 0v1024h324v-1024h-324z" />
<glyph unicode="&#xfa;" horiz-adv-x="1059" d="M341 1193l-8 12l385 279l8 -13zM415 -23q-158 0 -245.5 101.5t-87.5 272.5v673h322v-812q0 -58 2.5 -90.5t11.5 -65t28.5 -46.5t51.5 -14q11 0 22 3q-50 -22 -105 -22zM654 0v1024h324v-1024h-324z" />
<glyph unicode="&#xfb;" horiz-adv-x="1059" d="M153 1193l-9 12l385 279l385 -279l-8 -12l-377 272zM415 -23q-158 0 -245.5 101.5t-87.5 272.5v673h322v-812q0 -58 2.5 -90.5t11.5 -65t28.5 -46.5t51.5 -14q11 0 22 3q-50 -22 -105 -22zM654 0v1024h324v-1024h-324z" />
<glyph unicode="&#xfc;" horiz-adv-x="1059" d="M262 1194q-71 0 -121.5 50t-50.5 122q0 71 50 121.5t122 50.5q71 0 121.5 -50t50.5 -122q0 -71 -50 -121.5t-122 -50.5zM797 1194q-71 0 -121.5 50t-50.5 122q0 71 50 121.5t122 50.5q71 0 121.5 -50t50.5 -122q0 -71 -50 -121.5t-122 -50.5zM415 -23 q-158 0 -245.5 101.5t-87.5 272.5v673h322v-812q0 -58 2.5 -90.5t11.5 -65t28.5 -46.5t51.5 -14q11 0 22 3q-50 -22 -105 -22zM654 0v1024h324v-1024h-324z" />
<glyph unicode="&#xfd;" horiz-adv-x="1119" d="M371 1193l-9 12l386 279l8 -13zM664 -43l-459 1067h362l259 -609zM258 -446q-72 0 -124 52t-52 124t51.5 124t124.5 52t124.5 -51.5t51.5 -124.5t-52 -124.5t-124 -51.5z" />
<glyph unicode="&#xfe;" horiz-adv-x="1269" d="M225 -475v1909h328v-1909h-328zM799 1051q111 0 203.5 -80.5t142 -203.5t49.5 -255q0 -98 -30 -195t-81 -173t-126 -123.5t-158 -47.5q-52 0 -98 19q4 -1 16 -1q30 0 52 15.5t35.5 47t22.5 66t13 87.5t5 95t1 104v212q0 63 -1 105.5t-5 95.5t-13 87t-22.5 65t-35.5 46 t-52 15q-16 0 -25 -4q49 23 107 23zM701 -8l-4 2z" />
<glyph unicode="&#xff;" horiz-adv-x="1119" d="M292 1194q-71 0 -121.5 50t-50.5 122q0 71 50 121.5t122 50.5q71 0 121.5 -50t50.5 -122q0 -71 -50 -121.5t-122 -50.5zM826 1194q-71 0 -121.5 50t-50.5 122q0 71 50 121.5t122 50.5q71 0 121.5 -50t50.5 -122q0 -71 -50 -121.5t-122 -50.5zM664 -43l-459 1067h362 l259 -609zM258 -446q-72 0 -124 52t-52 124t51.5 124t124.5 52t124.5 -51.5t51.5 -124.5t-52 -124.5t-124 -51.5z" />
<glyph unicode="&#x131;" horiz-adv-x="768" d="M225 0v1024h328v-1024h-328z" />
<glyph unicode="&#x13f;" horiz-adv-x="1133" d="M82 0v1434h344v-1434h-344zM751 551q-71 0 -122.5 51t-51.5 123q0 71 51 121.5t123 50.5q71 0 121.5 -50.5t50.5 -121.5t-50.5 -122.5t-121.5 -51.5zM596 0q183 29 300.5 166.5t155.5 340.5v-507h-456z" />
<glyph unicode="&#x140;" horiz-adv-x="614" d="M82 0v1491h322l6 -1491h-328zM632 551q-71 0 -122.5 51t-51.5 123q0 71 51 121.5t123 50.5q71 0 121.5 -50.5t50.5 -121.5t-50.5 -122.5t-121.5 -51.5z" />
<glyph unicode="&#x141;" horiz-adv-x="1300" d="M785 866l-195 -95v-771h-344v603l-156 -76l-4 11l160 77v819h344v-651l191 94zM1144 303q57 117 75 258v-561h-470q141 20 252 114q86 72 143 189z" />
<glyph unicode="&#x142;" horiz-adv-x="768" d="M225 0v611l-164 -81l-5 11l169 83v867h328v-712l165 81l4 -9l-169 -83v-768h-328z" />
<glyph unicode="&#x152;" horiz-adv-x="2027" d="M947 0v1434h344v-1434h-344zM1846 915q-26 134 -76.5 240.5t-137 182.5t-196.5 96h410v-519zM672 20q-261 57 -425.5 247.5t-164.5 449.5t161.5 445.5t422.5 246.5q-63 -25 -108 -75t-71 -111t-41 -148.5t-19.5 -168.5t-4.5 -189q0 -79 2 -140t8.5 -129.5t17.5 -120.5 t29.5 -104t44.5 -89.5t63.5 -67t84.5 -46.5zM1621 395q-25 141 -93.5 233.5t-178.5 106.5q74 6 132 56t91.5 122t48.5 162v-680zM1448 0q131 16 233 97t160.5 199.5t78.5 264.5v-561h-472z" />
<glyph unicode="&#x153;" horiz-adv-x="1777" d="M1372 514q0 281 -12 375q-17 139 -67 160q123 -13 222 -90.5t152 -194.5t53 -250h-348zM546 -25q-124 13 -232.5 91.5t-173 198t-64.5 247.5q0 96 37.5 189t100 165t148.5 121t178 61q-21 -9 -38 -26t-28.5 -45.5t-20 -54.5t-13.5 -71t-8 -75t-4.5 -87t-1.5 -85.5v-91.5 q0 -59 0.5 -91.5t1.5 -86.5t4.5 -86t9 -75t14.5 -70.5t21 -55.5t29.5 -45.5t39.5 -26.5zM1249 -27q-179 0 -324 142q-129 -120 -282 -139q21 9 37.5 26t28 45t20 53.5t13.5 68.5t8 72t4.5 82t1.5 81.5v85.5v22v89t-1 83.5t-4 85.5t-8 73.5t-13 71.5t-19.5 55t-27.5 48 t-37 29q154 -23 278 -139q124 121 273 140q-17 -6 -30 -18t-22.5 -31.5t-16.5 -37.5t-11 -49t-6.5 -52.5t-3.5 -61.5t-1 -61.5v-66.5v-17v-190q0 -70 1.5 -115t6 -98.5t13.5 -86t25.5 -66t40 -51.5t57.5 -29.5t79 -11.5q75 0 133 17q-98 -49 -213 -49z" />
<glyph unicode="&#x160;" horiz-adv-x="1165" d="M583 1603l-385 278l8 12l377 -272l376 272l9 -12zM760 10q125 69 125 224q0 48 -12 88.5t-38.5 74.5t-55.5 59.5t-79 52.5t-90.5 45.5t-106.5 46.5q-105 44 -176 84.5t-129 94.5t-86 122.5t-28 155.5q0 150 100 262t265 138q-70 -25 -109 -87t-39 -137q0 -50 25 -94.5 t74.5 -82.5t106.5 -69t137 -65q109 -47 187 -95t136.5 -108.5t87 -135.5t28.5 -167q0 -124 -92.5 -239t-230.5 -168zM833 972q-68 0 -118.5 50.5t-50.5 118.5q0 70 49.5 120t119.5 50q73 0 122 -50t49 -120t-50 -119.5t-121 -49.5zM251 145q-69 0 -119 50t-50 120 t49.5 119.5t119.5 49.5q71 0 120.5 -49t49.5 -120q0 -72 -50.5 -121t-119.5 -49z" />
<glyph unicode="&#x161;" horiz-adv-x="886" d="M443 1193l-385 278l9 13l376 -273l377 273l8 -13zM558 -20q75 36 75 142q0 67 -44 114t-130 92q-136 69 -202 111q-175 110 -175 298q0 103 65 188.5t164 113.5q-40 -21 -62 -58.5t-22 -83.5q0 -58 48.5 -102.5t135.5 -85.5q141 -68 212 -111q182 -114 182 -302 q0 -119 -67.5 -205t-179.5 -111zM718 693q-21 99 -75.5 190t-127.5 138q110 -47 158 -47q31 0 45 32v-313zM92 -22v424q23 -123 72 -200.5t157 -185.5q-88 40 -134 40q-29 0 -55 -20t-40 -58z" />
<glyph unicode="&#x178;" horiz-adv-x="1200" d="M333 1604q-71 0 -121.5 50t-50.5 122q0 71 50 121.5t122 50.5q71 0 121.5 -50t50.5 -122q0 -71 -50 -121.5t-122 -50.5zM867 1604q-71 0 -121.5 50t-50.5 122q0 71 50 121.5t122 50.5q71 0 121.5 -50t50.5 -122q0 -71 -50 -121.5t-122 -50.5zM469 0v627l-387 807h377 l354 -745v-689h-344z" />
<glyph unicode="&#x17d;" horiz-adv-x="1287" d="M643 1603l-385 278l8 12l377 -272l377 272l8 -12zM82 0l709 1434h376l-708 -1434h-377zM120 946v488h449q-191 -29 -305 -156.5t-144 -331.5zM706 1q213 30 339.5 161.5t159.5 357.5v-519h-499z" />
<glyph unicode="&#x17e;" horiz-adv-x="1051" d="M525 1193l-385 278l8 13l377 -273l377 273l8 -13zM82 0l531 1024h357l-533 -1023l-1 -1h-354zM144 664v360h350q-140 -27 -233.5 -123t-116.5 -237zM563 0q156 29 251.5 143t120.5 288v-431h-372z" />
<glyph unicode="&#x192;" horiz-adv-x="1366" d="M269 -501q-36 0 -76 5q106 1 162 50.5t68 148.5l175 1426q14 117 90.5 207.5t183.5 136t224 45.5q30 0 78 -6q-106 -1 -162.5 -50t-68.5 -148l-175 -1427q-14 -116 -90.5 -206.5t-184 -136t-224.5 -45.5zM1174 1116q-69 0 -112.5 50t-35.5 120t63.5 120t125.5 50 q71 0 114.5 -49.5t35.5 -120.5q-9 -72 -65.5 -121t-125.5 -49zM151 -439q-71 0 -114.5 49.5t-35.5 120.5q9 72 66 121t126 49t112 -50t35 -120t-63.5 -120t-125.5 -50z" />
<glyph unicode="&#x2c6;" horiz-adv-x="942" d="M93 1193l-8 12l385 279l385 -279l-8 -12l-377 272z" />
<glyph unicode="&#x2c7;" horiz-adv-x="942" d="M470 1193l-385 278l8 13l377 -273l377 273l8 -13z" />
<glyph unicode="&#x2d8;" horiz-adv-x="543" d="M272 1223q-86 0 -138 52.5t-52 137.5h14q0 -79 48.5 -127.5t127.5 -48.5t127 48.5t48 127.5h15q0 -85 -52 -137.5t-138 -52.5z" />
<glyph unicode="&#x2d9;" horiz-adv-x="458" d="M230 1194q-71 0 -122.5 51t-51.5 123q0 71 51 121.5t123 50.5q71 0 121.5 -50.5t50.5 -121.5t-50.5 -122.5t-121.5 -51.5z" />
<glyph unicode="&#x2da;" horiz-adv-x="501" d="M252 1196q-70 0 -120 50t-50 120t50 119.5t120 49.5t119.5 -49.5t49.5 -119.5t-49.5 -120t-119.5 -50zM252 1210q64 0 109.5 46t45.5 110t-45.5 109.5t-109.5 45.5t-110 -45.5t-46 -109.5t46 -110t110 -46z" />
<glyph unicode="&#x2db;" horiz-adv-x="643" d="M325 -382q-90 0 -148.5 69t-58.5 162q0 67 39 108l8 -6q-13 -19 -13 -44q0 -38 29.5 -65t70.5 -27q40 0 63 15.5t43 51.5l167 -106q-23 -74 -75 -116t-125 -42z" />
<glyph unicode="&#x2dc;" horiz-adv-x="827" d="M511 1217q-55 0 -99.5 15.5t-73.5 37.5t-54.5 44t-56 37.5t-65.5 15.5q-44 0 -63 -33h-10q18 78 78.5 120.5t148.5 42.5q54 0 99 -15.5t75 -37.5t57 -44t57 -37.5t62 -15.5q56 0 68 60h10q-10 -93 -73 -141.5t-160 -48.5z" />
<glyph unicode="&#x2dd;" horiz-adv-x="962" d="M129 1193l-8 12l385 279l8 -13zM461 1193l-8 12l385 279l8 -13z" />
<glyph unicode="&#x300;" d="M-85 1193l-385 278l8 13l385 -279z" />
<glyph unicode="&#x301;" d="M-462 1193l-8 12l385 279l8 -13z" />
<glyph unicode="&#x302;" d="M-849 1193l-8 12l385 279l385 -279l-8 -12l-377 272z" />
<glyph unicode="&#x303;" d="M-316 1217q-116 0 -203 75q-44 39 -77.5 57t-69.5 18q-43 0 -62 -33h-10q18 78 78.5 120.5t148.5 42.5q116 0 204 -75q45 -39 76.5 -57t68.5 -18q57 0 69 60h10q-10 -93 -73 -141.5t-160 -48.5z" />
<glyph unicode="&#x304;" d="M-751 1276v14h633v-14h-633z" />
<glyph unicode="&#x306;" d="M-271 1223q-85 0 -138 51t-53 129h15q0 -72 49 -119t127 -47t126.5 47t48.5 119h14q0 -78 -52.5 -129t-136.5 -51z" />
<glyph unicode="&#x307;" d="M-228 1194q-71 0 -122.5 51t-51.5 123q0 71 51 121.5t123 50.5q71 0 121.5 -50.5t50.5 -121.5t-50.5 -122.5t-121.5 -51.5z" />
<glyph unicode="&#x308;" d="M-788 1194q-72 0 -122.5 50t-50.5 122q0 71 50.5 121.5t122.5 50.5q71 0 121.5 -50t50.5 -122q0 -71 -50 -121.5t-122 -50.5zM-254 1194q-71 0 -121.5 50t-50.5 122q0 71 50 121.5t122 50.5q71 0 121.5 -50t50.5 -122q0 -71 -50 -121.5t-122 -50.5z" />
<glyph unicode="&#x30a;" d="M-250 1196q-70 0 -120 50t-50 120t50 119.5t120 49.5t119.5 -49.5t49.5 -119.5t-49.5 -120t-119.5 -50zM-250 1210q64 0 109.5 46t45.5 110t-45.5 109.5t-109.5 45.5t-110 -45.5t-46 -109.5t46 -110t110 -46z" />
<glyph unicode="&#x30b;" d="M-834 1193l-8 12l385 279l8 -13zM-502 1193l-8 12l385 279l8 -13z" />
<glyph unicode="&#x30c;" d="M-472 1193l-385 278l8 13l377 -273l377 273l8 -13z" />
<glyph unicode="&#x327;" d="M-306 -439q-101 0 -141 63l6 5q25 -27 63 -27t65 30.5t27 73.5q0 64 -55 98l126 154q62 -29 98 -78.5t36 -111.5q0 -93 -65.5 -150t-159.5 -57z" />
<glyph unicode="&#x328;" d="M-318 -382q-90 0 -148.5 69t-58.5 162q0 67 39 108l8 -6q-14 -20 -14 -44q0 -38 30 -65t71 -27q40 0 63 15.5t43 51.5l167 -106q-23 -74 -75 -116t-125 -42z" />
<glyph unicode="&#x3bc;" horiz-adv-x="1059" d="M404 212q0 -58 2.5 -90.5t11.5 -65t28.5 -46.5t51.5 -14q11 0 22 3q-50 -22 -105 -22h-11v-452h-322v1499h322v-812zM654 1024h324v-1024h-324v1024z" />
<glyph unicode="&#x2000;" horiz-adv-x="974" />
<glyph unicode="&#x2001;" horiz-adv-x="1948" />
<glyph unicode="&#x2002;" horiz-adv-x="974" />
<glyph unicode="&#x2003;" horiz-adv-x="1948" />
<glyph unicode="&#x2004;" horiz-adv-x="649" />
<glyph unicode="&#x2005;" horiz-adv-x="487" />
<glyph unicode="&#x2006;" horiz-adv-x="324" />
<glyph unicode="&#x2007;" horiz-adv-x="324" />
<glyph unicode="&#x2008;" horiz-adv-x="243" />
<glyph unicode="&#x2009;" horiz-adv-x="389" />
<glyph unicode="&#x200a;" horiz-adv-x="108" />
<glyph unicode="&#x2010;" horiz-adv-x="765" d="M117 593v10h530v-10h-530z" />
<glyph unicode="&#x2011;" horiz-adv-x="765" d="M117 593v10h530v-10h-530z" />
<glyph unicode="&#x2012;" horiz-adv-x="765" d="M117 593v10h530v-10h-530z" />
<glyph unicode="&#x2013;" horiz-adv-x="765" d="M117 593v10h530v-10h-530z" />
<glyph unicode="&#x2014;" horiz-adv-x="1277" d="M117 593v10h1042v-10h-1042z" />
<glyph unicode="&#x2018;" horiz-adv-x="460" d="M303 1469v-9q-118 -21 -173.5 -81.5t-64.5 -166.5q12 56 58.5 92.5t105.5 36.5q71 0 122.5 -51t51.5 -123q0 -71 -51 -122.5t-123 -51.5q-80 0 -127 54.5t-47 134.5q0 250 248 287z" />
<glyph unicode="&#x2019;" horiz-adv-x="460" d="M156 988v9q118 21 173.5 81.5t64.5 166.5q-12 -56 -59 -92.5t-106 -36.5q-71 0 -122.5 51t-51.5 123q0 71 51 122.5t123 51.5q80 0 127 -54t47 -134q0 -251 -247 -288z" />
<glyph unicode="&#x201a;" horiz-adv-x="512" d="M182 -146v9q118 21 174 81.5t65 166.5q-12 -56 -59 -92.5t-106 -36.5q-71 0 -122.5 51t-51.5 123q0 71 51 122.5t123 51.5q80 0 127 -54.5t47 -134.5q0 -250 -248 -287z" />
<glyph unicode="&#x201c;" horiz-adv-x="874" d="M302 1469v-9q-118 -21 -174 -81.5t-65 -166.5q12 56 59 92.5t106 36.5q71 0 122.5 -51t51.5 -123q0 -71 -51 -122.5t-123 -51.5q-80 0 -127 54.5t-47 134.5q0 250 248 287zM719 1469v-9q-118 -21 -174 -81.5t-65 -166.5q12 56 59 92.5t106 36.5q71 0 122.5 -51t51.5 -123 q0 -71 -51 -122.5t-123 -51.5q-80 0 -127 54.5t-47 134.5q0 250 248 287z" />
<glyph unicode="&#x201d;" horiz-adv-x="874" d="M155 988v9q118 21 173.5 81.5t64.5 166.5q-12 -56 -59 -92.5t-106 -36.5q-71 0 -122.5 51t-51.5 123q0 71 51 122.5t123 51.5q80 0 127 -54t47 -134q0 -251 -247 -288zM569 988v9q118 21 174 81.5t65 166.5q-12 -56 -59 -92.5t-106 -36.5q-71 0 -122.5 51t-51.5 123 q0 71 51 122.5t123 51.5q80 0 127 -54t47 -134q0 -251 -248 -288z" />
<glyph unicode="&#x201e;" horiz-adv-x="935" d="M182 -146v9q118 21 174 81.5t65 166.5q-12 -56 -59 -92.5t-106 -36.5q-71 0 -122.5 51t-51.5 123q0 71 51 122.5t123 51.5q80 0 127 -54.5t47 -134.5q0 -250 -248 -287zM606 -146v9q118 21 174 81.5t65 166.5q-12 -56 -59 -92.5t-106 -36.5q-71 0 -122.5 51t-51.5 123 q0 71 51 122.5t123 51.5q80 0 127 -54.5t47 -134.5q0 -250 -248 -287z" />
<glyph unicode="&#x2020;" horiz-adv-x="1204" d="M602 -260q-60 0 -104 43.5t-44 104.5q0 56 43 101t99 46v844h-195q0 -56 -44.5 -100t-101.5 -44q-60 0 -104.5 44t-44.5 105q0 59 44.5 102.5t104.5 43.5q59 0 102.5 -43.5t43.5 -97.5h195v280q-55 0 -98.5 46t-43.5 103q0 59 44 102.5t104 43.5q59 0 103 -44t44 -102 q0 -59 -44 -104t-98 -45v-280h195q0 56 45 98.5t103 42.5q59 0 103 -44t44 -102q0 -61 -44.5 -105t-102.5 -44q-59 0 -103.5 44.5t-44.5 99.5h-195v-844q56 0 99 -44.5t43 -102.5q0 -61 -44.5 -104.5t-102.5 -43.5z" />
<glyph unicode="&#x2021;" horiz-adv-x="1204" d="M602 -260q-60 0 -104 43.5t-44 104.5q0 57 43 101t99 46v439h-195q0 -58 -45 -100.5t-101 -42.5q-60 0 -104.5 44t-44.5 104q0 59 44.5 103t104.5 44t103 -43.5t43 -98.5h195v395h-195q0 -58 -45 -101t-101 -43q-60 0 -104.5 44t-44.5 105q0 59 44.5 102.5t104.5 43.5 t103 -43t43 -98h195v280q-57 0 -99.5 46t-42.5 103q0 59 44 102.5t104 43.5q59 0 103 -44t44 -102q0 -60 -44 -104.5t-98 -44.5v-280h195q0 55 44.5 98t103.5 43t103 -44t44 -102q0 -61 -44.5 -105t-102.5 -44q-60 0 -104 44.5t-44 99.5h-195v-395h195q0 55 44.5 98.5 t103.5 43.5q58 0 102.5 -44t44.5 -103q0 -61 -44.5 -104.5t-102.5 -43.5q-60 0 -104 44t-44 99h-195v-439q56 0 99 -44.5t43 -102.5q0 -61 -44.5 -104.5t-102.5 -43.5z" />
<glyph unicode="&#x2022;" horiz-adv-x="768" d="M389 548q-73 0 -122.5 49t-49.5 123q0 73 49 123.5t123 50.5q73 0 123.5 -50t50.5 -124t-51 -123t-123 -49z" />
<glyph unicode="&#x2026;" horiz-adv-x="1966" d="M348 -18q-71 0 -122.5 51t-51.5 123q0 71 51 121.5t123 50.5q71 0 121.5 -50.5t50.5 -121.5t-50.5 -122.5t-121.5 -51.5zM983 -18q-71 0 -122.5 51t-51.5 123q0 71 51 121.5t123 50.5q75 0 121 -49.5t46 -123.5q0 -76 -46.5 -124.5t-120.5 -48.5zM1618 -18 q-71 0 -122.5 51t-51.5 123q0 71 51 121.5t123 50.5q71 0 121.5 -50.5t50.5 -121.5t-50.5 -122.5t-121.5 -51.5z" />
<glyph unicode="&#x202f;" horiz-adv-x="389" />
<glyph unicode="&#x2030;" horiz-adv-x="2533" d="M428 590q-91 0 -172 66t-127.5 166.5t-46.5 203.5q0 104 47 204.5t128 166t171 65.5q91 0 172 -66t127.5 -166.5t46.5 -203.5q0 -104 -47 -205t-128 -166t-171 -65zM428 600q26 0 46 8.5t35 27.5t25.5 39.5t17 54.5t10.5 62.5t6 73.5t2.5 77t0.5 83q0 58 -0.5 96t-3.5 87 t-9 80.5t-16.5 65.5t-25.5 53t-37 31.5t-51 12.5t-51.5 -12.5t-37.5 -32.5t-26 -54t-16.5 -66t-9 -80.5t-4 -86.5t-0.5 -94q0 -67 1.5 -111t5.5 -98.5t14 -89t25.5 -66t40.5 -46.5t58 -15zM556 0l657 1434h17l-660 -1434h-14zM1356 -29q-91 0 -172 66t-127.5 167t-46.5 204 q0 104 47 204.5t128 166t171 65.5q91 0 172 -66t127.5 -166.5t46.5 -203.5q0 -104 -47 -205t-128 -166.5t-171 -65.5zM2105 -29q-91 0 -172 66t-127.5 167t-46.5 204q0 104 47 204.5t128 166t171 65.5q91 0 172 -66t127.5 -166.5t46.5 -203.5q0 -104 -47 -205t-128 -166.5 t-171 -65.5zM2105 -25q26 0 46.5 8.5t35 28t25.5 40.5t17.5 55.5t10.5 63.5t6 74.5t2.5 78t0.5 84.5q0 59 -0.5 97t-4 88t-9 82t-16 66.5t-25.5 54t-37.5 32t-51.5 12.5t-51.5 -13t-37.5 -33t-26 -54.5t-16.5 -67t-9 -82t-4 -87.5t-0.5 -95t1 -96.5t4 -88.5t9 -82t16.5 -67 t25.5 -54t37.5 -32.5t51.5 -12.5zM1356 -18q26 0 46 8.5t35 27.5t25.5 39.5t17 54.5t10.5 62.5t6 73.5t2.5 77t0.5 83q0 58 -0.5 96t-3.5 87t-9 80.5t-16.5 65.5t-25.5 53t-37 31.5t-51 12.5t-51.5 -12.5t-38 -32.5t-26 -54t-16.5 -66t-9 -80.5t-4 -86.5t-1 -94t1 -95.5 t4 -87.5t9 -80.5t17 -65.5t26 -52.5t37.5 -32t51.5 -12.5z" />
<glyph unicode="&#x2039;" horiz-adv-x="530" d="M449 328l-367 307v4l367 307v-10l-357 -299l357 -299v-10z" />
<glyph unicode="&#x203a;" horiz-adv-x="530" d="M83 328v10l356 299l-356 299v10l367 -307v-4z" />
<glyph unicode="&#x205f;" horiz-adv-x="487" />
<glyph unicode="&#x20ac;" horiz-adv-x="1116" d="M795 -25q-223 26 -380 198.5t-191 415.5h-142v10h140q-15 116 0 236h-140v10h142q35 238 186.5 405.5t384.5 204.5v-1q-50 -20 -88 -67.5t-59.5 -104t-35.5 -137.5t-19.5 -147t-8.5 -153h379v-10h-379q-3 -119 0 -236h379v-10h-379q4 -115 13.5 -204t31.5 -181.5t64 -151 t102 -76.5v-1z" />
<glyph unicode="&#x2122;" horiz-adv-x="1559" d="M106 1192v242h167v-10q-56 -18 -99.5 -88t-56.5 -144h-11zM298 850v584h190v-584h-190zM670 1192q-15 75 -56 141.5t-98 89.5v11h164v-242h-10zM1073 840l-269 543v51h153l195 -387zM1287 850v584h191v-584h-191z" />
<glyph unicode="&#x2212;" horiz-adv-x="765" d="M117 593v10h530v-10h-530z" />
<glyph unicode="&#x2260;" horiz-adv-x="1007" d="M314 139l112 290h-309v10h312l123 318h-435v10h439l108 279h11l-108 -279h322v-10h-326l-123 -318h449v-10h-452l-111 -290h-12z" />
<glyph unicode="&#x2264;" horiz-adv-x="909" d="M791 289l-674 304v10l674 304v-10l-664 -299l664 -299v-10zM118 176v10h674v-10h-674z" />
<glyph unicode="&#x2265;" horiz-adv-x="909" d="M117 289v10l663 299l-663 299v10l674 -304v-10zM118 176v10h674v-10h-674z" />
<glyph unicode="&#x25fc;" horiz-adv-x="1024" d="M0 1024h1024v-1024h-1024v1024z" />
<glyph unicode="&#xf8ff;" horiz-adv-x="1669" d="M401 1491h776v-249h-513v-392q84 -30 199.5 -92t203 -112t201 -89.5t212.5 -39.5q24 0 48 2.5t36 4.5l13 3q-2 -3 -5.5 -7.5t-19.5 -15.5t-37 -20t-58 -16t-82 -7q-155 0 -333.5 65.5t-377.5 168.5v-695h-263v803q-50 20 -107 20q-71 0 -116.5 -29.5t-45.5 -87.5 q0 -40 21.5 -73t55.5 -45q-55 2 -86 37t-31 94q0 83 69 134t193 51q30 0 47 -3v590z" />
<glyph horiz-adv-x="1308" d="M649 -30q-163 41 -293.5 151.5t-203.5 266.5t-73 327q0 167 69 324.5t196 271t284 149.5q-199 -140 -199 -747q0 -118 10 -223.5t33.5 -210t68.5 -185.5t108 -124zM1195 979q-81 295 -224 430q75 -41 128 -41q60 0 96 48v-437zM1212 10q-34 47 -97 47q-60 0 -126 -43 q141 141 223 466v-470z" />
<glyph horiz-adv-x="1308" d="M649 -30q-163 41 -293.5 151.5t-203.5 266.5t-73 327q0 167 69 324.5t196 271t284 149.5q-199 -140 -199 -747q0 -118 10 -223.5t33.5 -210t68.5 -185.5t108 -124zM1195 979q-81 295 -224 430q75 -41 128 -41q60 0 96 48v-437zM1212 10q-34 47 -97 47q-60 0 -126 -43 q141 141 223 466v-470zM596 -439q-101 0 -141 63l6 5q25 -27 63 -27t65 30.5t27 73.5q0 64 -55 98l126 154q62 -29 98 -78.5t36 -111.5q0 -93 -65.5 -150t-159.5 -57z" />
<glyph horiz-adv-x="1525" d="M650 -26q-110 26 -212 89.5t-179 156.5q-177 210 -177 497q0 157 66 312q69 163 188 273q126 118 292 156q-198 -141 -198 -743q0 -322 69 -519q56 -159 151 -222zM1239 970q-39 130 -114 257q-79 130 -173 200q5 -2 23 -9t27 -11q60 -26 93 -34q23 -6 48 -6q22 0 45 8 q30 10 51 39v-444zM966 -13q89 78 89 264v365h324v-598q-55 83 -147 83q-76 0 -142 -42q-51 -32 -58 -37q-32 -22 -66 -35z" />
<glyph horiz-adv-x="1181" d="M651 915q94 -38 158.5 -71t126 -78t98 -94.5t58 -116t21.5 -148.5q0 -136 -71.5 -247.5t-192.5 -167.5q83 82 83 213q0 45 -11.5 84.5t-28 70t-49.5 60.5t-62 50.5t-80 46.5t-88.5 42.5t-102.5 44.5q-85 35 -143.5 64t-115 68t-90 81.5t-54 100t-20.5 126.5 q0 153 77.5 263.5t218.5 152.5q-88 -69 -88 -206q0 -37 9.5 -70t24 -58.5t42.5 -51t53 -43.5t67.5 -40.5t74.5 -37.5t85 -38zM959 1036q-69 267 -208 390q77 -29 117 -29q63 0 91 37v-398zM97 480q38 -145 108.5 -276t160.5 -206q-107 47 -170 47q-65 0 -99 -49v484zM369 -4 q0 -1 1 -2l-4 4l1 -1q1 -1 2 -1z" />
<glyph horiz-adv-x="1181" d="M959 1844l-385 -278l-385 278l9 13l376 -273l377 273zM651 915q94 -38 158.5 -71t126 -78t98 -94.5t58 -116t21.5 -148.5q0 -136 -71.5 -247.5t-192.5 -167.5q83 82 83 213q0 45 -11.5 84.5t-28 70t-49.5 60.5t-62 50.5t-80 46.5t-88.5 42.5t-102.5 44.5 q-85 35 -143.5 64t-115 68t-90 81.5t-54 100t-20.5 126.5q0 153 77.5 263.5t218.5 152.5q-88 -69 -88 -206q0 -37 9.5 -70t24 -58.5t42.5 -51t53 -43.5t67.5 -40.5t74.5 -37.5t85 -38zM751 1426q77 -29 117 -29q63 0 91 37v-398q-69 267 -208 390zM97 480 q38 -145 108.5 -276t160.5 -206q-107 47 -170 47q-65 0 -99 -49v484zM369 -4q0 -1 1 -2l-4 4l1 -1q1 -1 2 -1z" />
<glyph horiz-adv-x="1728" d="M812 -39q-156 0 -284 23.5t-231.5 73t-161 136.5t-57.5 206q0 158 103 269q122 132 402 194l17 4l-17 4q-146 33 -221.5 99t-75.5 183q0 76 33.5 136.5t91 97.5t131.5 56.5t159 19.5q159 0 243 -66q-71 48 -176 48q-108 0 -173 -85t-65 -203q0 -126 47.5 -201.5 t133.5 -87.5q-93 -10 -156 -72t-90.5 -153t-27.5 -205q0 -219 104 -340.5t311 -121.5q201 0 342 76q-153 -91 -382 -91zM1293 1042q-72 0 -122 51t-50 119q0 71 50 121.5t122 50.5t121 -49.5t49 -122.5q0 -72 -50.5 -121t-119.5 -49zM818 1008q-93 0 -145.5 46t-52.5 126 q0 64 49 107.5t119 43.5q45 0 74 -17q-41 -18 -69 -58.5t-28 -84.5q0 -65 26.5 -100t75.5 -35q68 0 117 55q-61 -83 -166 -83zM774 220q-127 93 -127 267q0 190 110 301.5t300 111.5q9 0 74.5 -1t80.5 -1q161 0 265 59.5t104 175.5q0 136 -77 198q136 -87 136 -299 q0 -169 -101.5 -272t-272.5 -107l7 -7q83 -77 105 -184q-29 91 -102 147t-173 63q-30 2 -84 2q-164 0 -241.5 -63t-77.5 -209q0 -114 74 -182zM952 164q-71 0 -121.5 50t-50.5 122q0 71 50.5 120.5t121.5 49.5t121 -49.5t50 -120.5q0 -73 -50.5 -122.5t-120.5 -49.5z" />
</font>
</defs>
</svg>
